<svg id="Layer_1" data-name="Layer 1" xmlns="http://www.w3.org/2000/svg" viewBox="0 0 1920 1080"><defs><style>.cls-1,.cls-10,.cls-11,.cls-12,.cls-13,.cls-14,.cls-2,.cls-27,.cls-3,.cls-37,.cls-4,.cls-5,.cls-6,.cls-7,.cls-8,.cls-9{isolation:isolate;}.cls-2,.cls-3,.cls-4,.cls-5{font-size:50px;fill:#e76e2e;}.cls-2,.cls-3,.cls-4,.cls-5,.cls-6,.cls-7,.cls-8{font-family:Poppins-SemiBold, Poppins;font-weight:600;}.cls-2{letter-spacing:-0.03em;}.cls-4{letter-spacing:-0.01em;}.cls-5{letter-spacing:0.01em;}.cls-10,.cls-11,.cls-12,.cls-13,.cls-14,.cls-6,.cls-7,.cls-8,.cls-9{font-size:35px;fill:#231f20;}.cls-6{letter-spacing:-0.01em;}.cls-14,.cls-8{letter-spacing:-0.01em;}.cls-10,.cls-11,.cls-12,.cls-13,.cls-14,.cls-9{font-family:Poppins-Light, Poppins;font-weight:300;}.cls-9{letter-spacing:-0.03em;}.cls-11{letter-spacing:-0.05em;}.cls-12{letter-spacing:0.01em;}.cls-13{letter-spacing:-0.02em;}.cls-15{fill:#ecf3fb;}.cls-16{opacity:0.43;}.cls-17{fill:#fff;}.cls-18{opacity:0.9;}.cls-19{fill:#fbc98b;}.cls-20{fill:#f6e7e3;}.cls-21{fill:#ea7347;}.cls-22{fill:#f09267;}.cls-23{fill:#fedda6;}.cls-24{fill:#7a282b;}.cls-25{fill:#531a19;}.cls-26{fill:#ae5a4a;}.cls-27,.cls-28{fill:#381510;}.cls-27{opacity:0.5;}.cls-29{fill:#a94226;}.cls-30{fill:#fbebdb;}.cls-31{fill:#729ad1;}.cls-32{fill:#5e8bc8;}.cls-33{fill:#f3d2b8;}.cls-34{fill:#b6473d;}.cls-35{fill:#5d8bc8;}.cls-36{fill:#fac0bc;}.cls-37{fill:#f58d85;opacity:0.6;}.cls-38{fill:#fcb548;}.cls-39{fill:#1f1d57;}.cls-40{fill:#f69794;}.cls-41{fill:#333;}</style></defs><title>Menara Atas Baru</title><g class="cls-1"><text class="cls-2" transform="translate(614.88 111.72)">P</text><text class="cls-3" transform="translate(640.23 111.72)">el</text><text class="cls-3" transform="translate(677.08 111.72)">a</text><text class="cls-3" transform="translate(700.98 111.72)">tihan Di</text><text class="cls-4" transform="translate(864.43 111.72)">g</text><text class="cls-3" transform="translate(892.08 111.72)">ital </text><text class="cls-5" transform="translate(966.82 111.72)">M</text><text class="cls-3" transform="translate(1007.32 111.72)">a</text><text class="cls-3" transform="translate(1031.42 111.72)">r</text><text class="cls-3" transform="translate(1047.97 111.72)">keting</text></g><g class="cls-1"><text class="cls-6" transform="translate(226.87 178.73)">K</text><text class="cls-7" transform="translate(245.63 178.73)">ursus ini </text><text class="cls-8" transform="translate(374.01 178.73)">c</text><text class="cls-7" transform="translate(389.48 178.73)">o</text><text class="cls-8" transform="translate(408.69 178.73)">c</text><text class="cls-7" transform="translate(424.16 178.73)">ok u</text><text class="cls-7" transform="translate(486.5 178.73)">n</text><text class="cls-7" transform="translate(505.78 178.73)">tuk </text><text class="cls-9" transform="translate(560.49 178.73)">P</text><text class="cls-10" transform="translate(578.23 178.73)">elaja</text><text class="cls-11" transform="translate(646.27 178.73)">r</text><text class="cls-10" transform="translate(655.86 178.73)">, </text><text class="cls-12" transform="translate(670.52 178.73)">M</text><text class="cls-10" transform="translate(698.87 178.73)">ahasis</text><text class="cls-10" transform="translate(787.95 178.73)">w</text><text class="cls-10" transform="translate(813.57 178.73)">a, </text><text class="cls-10" transform="translate(845.1 178.73)">D</text><text class="cls-10" transform="translate(868.55 178.73)">osen, </text><text class="cls-10" transform="translate(953.25 178.73)">S</text><text class="cls-10" transform="translate(970.4 178.73)">taff </text><text class="cls-13" transform="translate(1026.68 178.73)">P</text><text class="cls-14" transform="translate(1044.74 178.73)">r</text><text class="cls-10" transform="translate(1055.83 178.73)">o</text><text class="cls-14" transform="translate(1075.05 178.73)">f</text><text class="cls-10" transform="translate(1084.81 178.73)">esional dan </text><text class="cls-9" transform="translate(1259.04 178.73)">P</text><text class="cls-10" transform="translate(1276.79 178.73)">emilik Bisnis</text></g><rect class="cls-15" width="1920" height="3240"/><g class="cls-16"><path class="cls-17" d="M1150.83,609.56c16.48-10.58,39.65-8.47,54.07,4.93-7.05-41.33,15.65-88.15,54.52-100.52s86.82,19.66,85.85,61.61c0-.09.09-.17.14-.26,11.8-22.35,32.48-42,57.13-42.88s49.54,25,41.44,49.13c14.77-12.13,34.53-19.61,52.75-14.47s32.49,25.89,26.69,44.43c10.93-10.64,32.6-1.75,33.46,13.73,12.64-6.26,48,3.15,43.44,23.54a12.74,12.74,0,0,1-5.19,7.33h-465C1127.7,638.31,1135.94,619.12,1150.83,609.56Z"/></g><g class="cls-18"><path class="cls-17" d="M937.62,647c19-44.19,75.27-66.53,118.06-46.83,2.58-22.57,25.71-38.58,47.73-37.74s41.84,15.15,55.46,33c-2.72-22.44,7.9-46,26.27-58.39a58.65,58.65,0,0,1,62.41-1.24c.45-33.19,29.43-61.64,61.37-65.76s64.22,12.94,84.47,38.74S1423,568,1425.69,601c9-15.79,33.93-9,44.6,5.57,5.61,7.69,16.13,25.93,19.6,41.07H939.38C938.8,647.45,938.21,647.24,937.62,647Z"/></g><g class="cls-16"><path class="cls-17" d="M273.47,1043.05c13.07-8.39,31.45-6.72,42.89,3.91-5.59-32.78,12.41-69.93,43.25-79.74s68.88,15.6,68.11,48.88l.1-.21c9.37-17.73,25.78-33.33,45.33-34s39.3,19.84,32.88,39c11.72-9.63,27.39-15.56,41.84-11.48s25.78,20.54,21.18,35.24c8.67-8.43,25.86-1.38,26.54,10.9,10-5,38.11,2.5,34.46,18.67a10.11,10.11,0,0,1-4.11,5.82H257.07C255.12,1065.86,261.65,1050.64,273.47,1043.05Z"/></g><g class="cls-18"><path class="cls-17" d="M104.32,1072.75c15.05-35,59.72-52.77,93.66-37.15,2.05-17.9,20.39-30.61,37.86-29.94s33.2,12,44,26.19c-2.15-17.8,6.27-36.53,20.84-46.32a46.56,46.56,0,0,1,49.51-1c.36-26.33,23.35-48.9,48.69-52.17s50.95,10.26,67,30.73,23.52,46.95,25.63,73.19c7.1-12.53,26.91-7.17,35.38,4.42,4.45,6.1,12.79,20.57,15.55,32.58H105.72Z"/></g><rect class="cls-19" x="811.89" y="540" width="315.73" height="540"/><path class="cls-20" d="M1045.92,731.27s6.28,46.5,35.26,63c0,0-.28,71.68-3.55,90.54s-4.09,31.65-4.09,31.65h7.64V731.27Z"/><rect class="cls-19" x="833.69" y="450.9" width="54.24" height="118.51" rx="12"/><rect class="cls-21" x="825.51" y="440.53" width="68.33" height="27.97" rx="7.34"/><path class="cls-22" d="M852.33,444.09c-1.58-1.81-3.8-1.44-5.88-1.26-1.3.12-2.61.19-3.92.21a36.62,36.62,0,0,0-4.19.2,7.46,7.46,0,0,0-2.72.86,3.48,3.48,0,0,0-1.83,3.92c.56,2,2.65,3.14,4.56,3.47a29.83,29.83,0,0,0,4.62.42c1.26,0,2.52,0,3.77-.07,2.34-.13,5-.27,6.25-2.64A4.39,4.39,0,0,0,852.33,444.09Z"/><path class="cls-22" d="M872.49,455.21a3.71,3.71,0,0,0-.86-1.52.53.53,0,0,0-.12-.14,4.19,4.19,0,0,0-1.14-1l-1.09-.46a4.33,4.33,0,0,0-.7-.21c-1.4-.28-2.88-.25-4.3-.39a17.15,17.15,0,0,0-3.36,0,7.84,7.84,0,0,0-3,.85,5.21,5.21,0,0,0-1.21.88,2.55,2.55,0,0,0-.66.8,4.05,4.05,0,0,0-.33.81,2.77,2.77,0,0,0,.84,3.27h0a2.68,2.68,0,0,0,.85.6,10.34,10.34,0,0,0,1.41.61,8.06,8.06,0,0,0,1.45.35c1.42.24,2.82.5,4.26.68a11.41,11.41,0,0,0,4.28,0C870.93,459.81,873.08,457.58,872.49,455.21Z"/><path class="cls-22" d="M891.85,446.38a3,3,0,0,0-1.28-1.67l-.21-.11a3.41,3.41,0,0,0-2.25-.61h-.6a2.6,2.6,0,0,0-1.28.28l.3-.12-.54.21-.58.22a4.67,4.67,0,0,0-.49.27h0l-.23.17a3.47,3.47,0,0,0-.74.69c0,.06-.19.23-.25.34a2.42,2.42,0,0,0-.25,1.93,3.69,3.69,0,0,0,.75,1.3l.24.24a4.73,4.73,0,0,0,2,1,5.08,5.08,0,0,0,2.45,0,2.9,2.9,0,0,0,.81-.24,2.74,2.74,0,0,0,1.12-.75,5.13,5.13,0,0,0,.44-.6l.09-.13h0a1.61,1.61,0,0,0,.21-.3A2.85,2.85,0,0,0,891.85,446.38Z"/><path class="cls-23" d="M864.3,479.26a4.51,4.51,0,0,0-4.4-3.88,21,21,0,0,0-3.07.16l-3.08.26c-2.56.21-5.22.24-7.44,1.71a3.72,3.72,0,0,0-1.8,3.13,3.58,3.58,0,0,0,1.8,3.13,10.51,10.51,0,0,0,4.5,1.1c1,0,2.06-.1,3.08-.15a49.55,49.55,0,0,0,7.2-.55,4.47,4.47,0,0,0,2.68-2.06A4.57,4.57,0,0,0,864.3,479.26Z"/><path class="cls-23" d="M878.59,488.87a4.92,4.92,0,0,0-2.69-2.07,6.44,6.44,0,0,0-.72-.2,10,10,0,0,0-2.67-.09,17.9,17.9,0,0,0-2.51.38,6,6,0,0,0-.74.14,9.2,9.2,0,0,0-3.06,2.05l-.09.07a2.12,2.12,0,0,0-.44.59,2.57,2.57,0,0,0,0,2.44,2,2,0,0,0,.44.6l.09.07a4.13,4.13,0,0,0,1.78,1.39,4.2,4.2,0,0,0,.8.45,5.71,5.71,0,0,0,1.14.33,18.82,18.82,0,0,0,2.59.39,10.23,10.23,0,0,0,2.07,0,6.75,6.75,0,0,0,1.25-.25,7.16,7.16,0,0,0,1.18-.49,4.43,4.43,0,0,0,1.58-1.61A4,4,0,0,0,878.59,488.87Z"/><path class="cls-23" d="M848.86,506.72a7.46,7.46,0,0,0-.88-.37,5.8,5.8,0,0,0-2.25-.49,4.78,4.78,0,0,0-1.07.08c-.88.09-1.77.14-2.65.26a7.49,7.49,0,0,0-3.57,1.26h-.05a2.62,2.62,0,0,0-.85.58,2.92,2.92,0,0,0-.91,2.15,3.56,3.56,0,0,0,1,2.3,5.3,5.3,0,0,0,.52.42,4.29,4.29,0,0,0,.93.77,10.39,10.39,0,0,0,1.49.66,9.65,9.65,0,0,0,2.76.54,10,10,0,0,0,1.73,0h.39a5.25,5.25,0,0,0,2.41-.66,3.81,3.81,0,0,0,1.35-1h0a6.34,6.34,0,0,0,1-1.26A3.84,3.84,0,0,0,848.86,506.72Z"/><path class="cls-24" d="M1127.16,1100.7H813.69c-3.3,0-6-9.27-6-20.7h0c0-11.43,2.66-20.7,6-20.7h313.47c3.3,0,6,9.27,6,20.7h0C1133.13,1091.43,1130.46,1100.7,1127.16,1100.7Z"/><polygon class="cls-25" points="1146.53 544.05 793.94 562.79 793.5 534.38 1146.1 515.64 1146.53 544.05"/><polygon class="cls-26" points="1145.25 498.54 793.34 513.95 793.47 501.1 1145.37 485.7 1145.25 498.54"/><path class="cls-23" d="M846.54,819.87a6.1,6.1,0,0,0-3.07-4.69c-2-1-3.92-2-6.29-1.78-1.88.18-3.82.53-5.68.87a22.68,22.68,0,0,0-3.63,1,14.82,14.82,0,0,0-2.11.86,11.3,11.3,0,0,0-1.13.83l-.31.09a5,5,0,0,0-3.5,4.07,4.79,4.79,0,0,0,2.34,4.87l.93.43c.24.11,1,.67.25,0-.42-.33-.47-.37-.13-.11l1.29,1a9.49,9.49,0,0,0,2.2,1,20.64,20.64,0,0,0,5.45,1,23.23,23.23,0,0,0,4-.22,19.71,19.71,0,0,0,2.65-.4,8.49,8.49,0,0,0,3.62-2,13.16,13.16,0,0,0,1.32-1.37A6.42,6.42,0,0,0,846.54,819.87Z"/><path class="cls-23" d="M877.81,987.94c-.6-4.94-3.57-7.93-7.63-9.72-3.15-1.39-6.78-1.34-10.14-1.36-2.55,0-5.12.13-7.67.23a62.47,62.47,0,0,0-9.63,1.13,25.3,25.3,0,0,0-8.31,3.18c-3.77,2.42-5.22,9.32-1.49,12.69a17.45,17.45,0,0,0,5.81,3.72l-.88-.36a7.32,7.32,0,0,0,1.71.89c.8.37,1.63.82,2.47,1.12a47.21,47.21,0,0,0,10.32,2,73.72,73.72,0,0,0,8,.64c1.34,0,2.68,0,4-.11a22.17,22.17,0,0,0,8.3-2.44,10.66,10.66,0,0,0,3.82-4.2A12.52,12.52,0,0,0,877.81,987.94Z"/><path class="cls-23" d="M897.79,1010.33l-.35-.05a3.34,3.34,0,0,0-1.64-.6h-.16a5.05,5.05,0,0,0-1.87-1l-.61-.09H893l-1-.18a29.42,29.42,0,0,0-3.24-.48,14.83,14.83,0,0,0-3.64.27l1.83-.27a20.2,20.2,0,0,0-4,.7l-1,.32A6.57,6.57,0,0,0,880,1010c-.52.23-1,.45-1.54.73a5.71,5.71,0,0,0-2.24,2.2,4.17,4.17,0,0,0-.55,3.82c.45,2.19,2.48,3.67,4.28,4.6a6.73,6.73,0,0,0,2.31,1.21,13.23,13.23,0,0,0,3.18.6,28.29,28.29,0,0,0,4-.44,11.82,11.82,0,0,0,2.13-1,13.22,13.22,0,0,0,2.81-1.87,8.75,8.75,0,0,0,2.64-2.81,6.84,6.84,0,0,0,.36-1.08h0a10.17,10.17,0,0,0,.9-1.25c.1-.26.2-.53.31-.79a4.43,4.43,0,0,0,.06-.51l.33-.52a1.72,1.72,0,0,0-.6-2.36A1.59,1.59,0,0,0,897.79,1010.33Z"/><path class="cls-23" d="M984,969.54a7,7,0,0,0-1.91-4.38l1,1.26c-2.55-4.62-8.63-3.61-13.07-3.79-1.52-.06-3-.11-4.54-.06a22.37,22.37,0,0,0-3.55.44l-.9.18a7.38,7.38,0,0,0-1.51.62c-1.34,1-1.5,1.16-.49.39a5.12,5.12,0,0,0-1.63,7,5.49,5.49,0,0,0,.63.81q-1.18-1.5.38.51l1.12.87a6.13,6.13,0,0,0,1,.48,18.15,18.15,0,0,0,3.27,1.23,43.37,43.37,0,0,0,6,.87c4.47.36,10.69,1.37,13.27-3.33l-.39.5A5.75,5.75,0,0,0,984,969.54Z"/><path class="cls-23" d="M989.79,952.4v-.16a1.59,1.59,0,0,0-1.35-1.55,3.45,3.45,0,0,0-1.38-.51h.15l-.36-.06a4.09,4.09,0,0,0-2.14,0l-.24,0a6.26,6.26,0,0,0-1.66.66,6.89,6.89,0,0,0-2.15,1.68l-.11.11-.17.14-.43.56c-.29.24-.4.42-.35.56a.39.39,0,0,0-.1.54l0,.05.07.06A2.87,2.87,0,0,0,980.8,957a4,4,0,0,0,2.42,1.24,10.79,10.79,0,0,0,1.5.19,6.41,6.41,0,0,0,1.57-.23,4.5,4.5,0,0,0,1.4-.66,4.83,4.83,0,0,0,1.62-1.65q.21-.4.39-.84a3.63,3.63,0,0,0,.34-1.45A3.52,3.52,0,0,0,989.79,952.4Z"/><path class="cls-23" d="M1088,1019.84a8.08,8.08,0,0,0-2.19-5l1.11,1.44c-2.93-5.3-9.93-4.14-15-4.35-1.75-.07-3.47-.12-5.22-.07a25.69,25.69,0,0,0-4.09.51,9.26,9.26,0,0,0-1,.21,7.73,7.73,0,0,0-1.74.7c-1.54,1.18-1.73,1.34-.57.46-3.2,2.36-3.66,5.92-1.16,9-.9-1.14-.76-1,.44.59l1.29,1a9.07,9.07,0,0,0,1.13.55,21.12,21.12,0,0,0,3.77,1.41,48.76,48.76,0,0,0,7,1c5.13.42,12.29,1.59,15.26-3.83l-.45.59A6.56,6.56,0,0,0,1088,1019.84Z"/><path class="cls-23" d="M1097.9,993v-.18a1.82,1.82,0,0,0-1.56-1.78,3.93,3.93,0,0,0-1.59-.59h.18l-.42-.07a4.67,4.67,0,0,0-2.46,0l-.27.06a6.64,6.64,0,0,0-1.92.76,7.81,7.81,0,0,0-2.46,1.92l-.14.14-.19.16-.49.64c-.33.27-.47.49-.4.65a.42.42,0,0,0-.13.59l.06.08.07.07a3.31,3.31,0,0,0,1.4,2.85,4.59,4.59,0,0,0,2.78,1.44,12.57,12.57,0,0,0,1.73.21,7.31,7.31,0,0,0,1.8-.26,5.29,5.29,0,0,0,1.61-.76,5.85,5.85,0,0,0,1.87-1.9,8.38,8.38,0,0,0,.45-1,4.39,4.39,0,0,0,.39-1.67A4,4,0,0,0,1097.9,993Z"/><path class="cls-23" d="M893.17,613.16c-3.54-2.15-8.09-2-12.12-1.87a30.07,30.07,0,0,0-6.14.51,14.62,14.62,0,0,0-3,1.18,15.64,15.64,0,0,0-2,1.31l-.27.22a1.66,1.66,0,0,0-.26.27c-.92,1.23-1,1.33-.29.3a4.77,4.77,0,0,0-1.39,4.25,5.06,5.06,0,0,0,2.4,3.67c-1.62-1.07.5.45.83.62a10,10,0,0,0,1,.41,17.9,17.9,0,0,0,3,1.08,37.13,37.13,0,0,0,6.14.42c1.51.07,3,.11,4.51.2a13.73,13.73,0,0,0,6-.62,8.34,8.34,0,0,0,2.89-1.69,6.46,6.46,0,0,0,1.8-3.76A6.58,6.58,0,0,0,893.17,613.16Z"/><path class="cls-23" d="M864.69,607.91a6.21,6.21,0,0,0,1.75-4.22,6.72,6.72,0,0,0-1.75-4.23,5.84,5.84,0,0,0-1.16-1l-.35-.24-.34-.25.14.12a10.09,10.09,0,0,0-4.75-1.43,15.66,15.66,0,0,0-9.79,2,7.4,7.4,0,0,0-1,.44,7.3,7.3,0,0,0-1.22,1,3.5,3.5,0,0,0-.79,1.08,4,4,0,0,0-.16,4.67,3.71,3.71,0,0,0,.56.8,4.87,4.87,0,0,0,1.61,1.45c.22.11.44.21.67.3,2.69,2,7,2.14,8.78,2.26a10.16,10.16,0,0,0,1.56,0,14.82,14.82,0,0,0,2.09-.3,7.56,7.56,0,0,0,2.4-1.09l-.13.11c.14-.11.29-.21.44-.31l.1-.08A5.83,5.83,0,0,0,864.69,607.91Z"/><path class="cls-23" d="M1082.55,592.93c-3.54-2.14-8.09-2-12.12-1.87a29.39,29.39,0,0,0-6.14.52,14,14,0,0,0-3,1.17,15.71,15.71,0,0,0-2,1.32l-.27.21a1.27,1.27,0,0,0-.25.27q-1.39,1.85-.3.3a4.83,4.83,0,0,0-1.39,4.25,5,5,0,0,0,2.41,3.69c-1.62-1.06.5.45.83.62a8.05,8.05,0,0,0,1,.41,16,16,0,0,0,3,1.08,37.13,37.13,0,0,0,6.14.42c1.51.07,3,.11,4.51.2a13.58,13.58,0,0,0,6-.62,8,8,0,0,0,2.89-1.68,6.46,6.46,0,0,0,1.8-3.76A6.58,6.58,0,0,0,1082.55,592.93Z"/><path class="cls-23" d="M1096.71,587.69a6.25,6.25,0,0,0,1.75-4.23,6.72,6.72,0,0,0-1.75-4.23,5.9,5.9,0,0,0-1.17-1l-.34-.24-.35-.24.15.11a10.09,10.09,0,0,0-4.75-1.43,23.84,23.84,0,0,0-6.88.69,14.8,14.8,0,0,0-2.92,1.33,5.38,5.38,0,0,0-2.18,1.38,3.81,3.81,0,0,0-.79,1.08,4,4,0,0,0-.16,4.67,3.71,3.71,0,0,0,.56.8,4.87,4.87,0,0,0,1.61,1.45,5.79,5.79,0,0,0,.67.31c2.69,2,7,2.13,8.77,2.25a10.29,10.29,0,0,0,1.57,0,14.82,14.82,0,0,0,2.09-.3A7.19,7.19,0,0,0,1095,589l-.14.11.45-.31.1-.07A6.83,6.83,0,0,0,1096.71,587.69Z"/><path class="cls-23" d="M988.7,644.39a17.2,17.2,0,0,0-6.16-1.7,44.21,44.21,0,0,0-6.51,0c-1.11,0-2.2.16-3.3.22a20.28,20.28,0,0,0-3,.44,3.12,3.12,0,0,0-.67.11l-1.66.71a10.21,10.21,0,0,0-1.18.9,4.75,4.75,0,0,0-1.57,2,5.27,5.27,0,0,0,.15,4.44c-.07-.13-.13-.27-.22-.45a4.56,4.56,0,0,0,1.1,2.08,7.06,7.06,0,0,0,2,1.85,10.62,10.62,0,0,0,2.76,1.37,18.9,18.9,0,0,0,4.84.78c2,.08,3.94,0,5.91.15a12.5,12.5,0,0,1,1.89.49,7.62,7.62,0,0,0,9-3C994.25,651.3,992.31,646.12,988.7,644.39Z"/><path class="cls-23" d="M1112.23,739.81a6.62,6.62,0,0,0-3.82-.85c-1.05.12-2.05.35-3.09.5l1.51-.21c-.81.11-1.62.25-2.42.38a11.58,11.58,0,0,0-1.94.25,14.53,14.53,0,0,0-2,.83,4.61,4.61,0,0,0-2.39,6.07,4.67,4.67,0,0,0,1,1.43,11.16,11.16,0,0,0,2.64,1.76,4.69,4.69,0,0,0,1.32.4c.69.1,1.38.2,2.08.27a7.86,7.86,0,0,0,1.68,0,19.12,19.12,0,0,0,3-.48,6.53,6.53,0,0,0,3.41-2.12,6.61,6.61,0,0,0,1.38-2.36,6.33,6.33,0,0,0,.2-1.44A5.2,5.2,0,0,0,1112.23,739.81Z"/><polygon class="cls-24" points="1145.64 518.04 793.35 535.36 793.15 513.56 1145.44 496.24 1145.64 518.04"/><rect class="cls-24" x="853.64" y="674.32" width="98.31" height="33.87"/><rect class="cls-24" x="991" y="674.32" width="98.31" height="33.87"/><rect class="cls-27" x="859.67" y="727.8" width="86.25" height="192.2"/><rect class="cls-28" x="861.78" y="731.33" width="82.04" height="185.15"/><path class="cls-29" d="M949.92,916.42h-1.84V724.21H857.62V916.42h-1.85c-4.61,0-8.35,6.27-8.35,14v.49H958.28v-.49C958.28,922.69,954.54,916.42,949.92,916.42ZM861.83,731.27h82v34h-82Zm0,41.92h82V916.42h-82Z"/><rect class="cls-20" x="863.32" y="734.31" width="79.32" height="6.69"/><rect class="cls-20" x="863.32" y="744.81" width="79.32" height="6.69"/><rect class="cls-20" x="863.32" y="755.31" width="79.32" height="6.69"/><rect class="cls-20" x="863.32" y="765.15" width="79.32" height="6.69"/><rect class="cls-20" x="863.32" y="776.21" width="79.32" height="6.69"/><rect class="cls-20" x="867" y="731.16" width="0.77" height="57.16"/><rect class="cls-20" x="938.64" y="731.16" width="0.77" height="57.16"/><path class="cls-30" d="M910.14,904.15h9.94a3.42,3.42,0,0,1,3.42,3.42h0a3.5,3.5,0,0,1-3.5,3.5h-9.87v-6.91Z"/><path class="cls-31" d="M933.46,907v1a4.42,4.42,0,0,1-.24,1.53c-.31.9-.9,1.5-1.56,1.5H909.78c-.15,0-.26-.2-.26-.44v-.15c0-.25.11-.44.26-.44h13.34a3.8,3.8,0,0,0,.18-.47,4.29,4.29,0,0,0,.2-1.33v-1.32a4.14,4.14,0,0,0-.06-.7,3.52,3.52,0,0,0-.31-1H909.78c-.15,0-.26-.2-.26-.44v-.15c0-.25.11-.44.26-.44h22c.77,0,1.43.87,1.63,2.06A5.24,5.24,0,0,1,933.46,907Z"/><path class="cls-32" d="M933.4,906.21h-10a3.52,3.52,0,0,0-.31-1H909.78c-.15,0-.26-.2-.26-.44v-.15c0-.25.11-.44.26-.44h22C932.54,904.15,933.2,905,933.4,906.21Z"/><polygon class="cls-33" points="910.13 907.6 911.75 907.72 910.13 907.79 910.13 907.6"/><polygon class="cls-33" points="910.13 908.69 913.99 908.8 910.13 908.87 910.13 908.69"/><path class="cls-34" d="M912.63,916.42h12.43V911H912.53c-.86,0-1.55,1.16-1.55,2.6h0C911,915.17,911.72,916.42,912.63,916.42Z"/><path class="cls-30" d="M938.5,916.45h-13a2.72,2.72,0,0,1-2.72-2.72h0a2.66,2.66,0,0,1,2.66-2.66h13.1v5.38Z"/><path class="cls-34" d="M921.79,916.42H939c.13,0,.24-.18.24-.41h0c0-.22-.11-.4-.24-.4H921.8c-.13,0-.24.18-.24.4h0C921.55,916.24,921.66,916.42,921.79,916.42Z"/><path class="cls-34" d="M921.79,911.84H939c.13,0,.24-.18.24-.4h0c0-.22-.11-.4-.24-.4H921.8c-.13,0-.24.18-.24.4h0C921.55,911.66,921.66,911.84,921.79,911.84Z"/><polygon class="cls-33" points="938.5 913.73 936.59 913.82 938.5 913.87 938.5 913.73"/><polygon class="cls-33" points="938.5 912.49 933.95 912.58 938.5 912.63 938.5 912.49"/><path class="cls-31" d="M934,912.56a1.51,1.51,0,0,1,.26.61V915l.57-.57.58.57v-1.55a1.67,1.67,0,0,0-.15-.76.17.17,0,0,0-.15-.16Z"/><path class="cls-35" d="M934,912.56a1.51,1.51,0,0,1,.26.61h1.15s0-.54-.28-.63Z"/><rect class="cls-28" x="998.88" y="727.8" width="86.25" height="192.2"/><path class="cls-20" d="M1043.67,731.27s.21,56.79-34.16,104.8c0,0,7.16,62.61,6.14,80.35H999.14V731.27Z"/><path class="cls-29" d="M1087.23,916.42h-1.84V724.21H994.93V916.42h-1.85c-4.61,0-8.35,6.27-8.35,14v.49h110.86v-.49C1095.59,922.69,1091.85,916.42,1087.23,916.42ZM999.14,731.27h82v34h-82Zm0,41.92h82V916.42h-82Z"/><path class="cls-36" d="M1034.64,847.62l-.15,15.75s15.61-.79,15.69-1.33,2.28-3.45,2-3.84-3.53-8.33-3.53-8.33Z"/><path class="cls-37" d="M1050.38,854.17c-1.89,1.68-6.52,4.41-15.81.82l.07-7.37,14,2.25S1049.49,852,1050.38,854.17Z"/><path class="cls-36" d="M1095.77,803.11s1.15-9.62,1.88-9.67-.26,6,.58,6.06,5.39-11.44,6-11.18S1103,798,1103.5,798s6-8.36,7-7.89-4,9.25-3.35,9.46,7.59-6.64,8.63-5.75c.73.63-6.64,7.68-6.12,8s6.81-2.68,7.22-2c.25.42-9.57,8.2-9.57,8.2s-6.54-.11-6.86-.06S1095.77,803.11,1095.77,803.11Z"/><path class="cls-38" d="M1094.83,801.64s-16.16,47.32-30.76,50.77a57.56,57.56,0,0,1-11.46,3s-3.92,9.09-20.08,4.07c0,0-13.34,2.35-17.74,7.37s-16.63,41-17.58,49.51l84.44.16-2.59-10.22L1074.14,890s34.19-34.54,36.85-82.18Z"/><path class="cls-17" d="M1081.65,916.5c-.42-2.2-.94-4.38-1.44-6.57s-1.1-4.34-1.69-6.51-1.23-4.31-1.89-6.46-1.36-4.27-2.1-6.39a130.87,130.87,0,0,0-5.09-12.47,48.77,48.77,0,0,0-7.18-11.36,39.18,39.18,0,0,1,3.68,5.6c1.1,1.95,2.08,4,3,6s1.78,4.1,2.6,6.18,1.58,4.18,2.32,6.29c1.51,4.21,2.84,8.48,4.13,12.77q1,3.21,1.87,6.45C1080.49,912.17,1081.07,914.34,1081.65,916.5Z"/><path class="cls-17" d="M1017.8,865.8c2.06.53,3.5,2.65,4.51,4.49a54.76,54.76,0,0,1,2.5,6.16,18.63,18.63,0,0,0-1.87-6.49C1021.61,867.45,1019.54,865.73,1017.8,865.8Z"/><path class="cls-17" d="M1026.06,882.3c.15,1.51.31,3,.41,4.54s.23,3,.33,4.53c.18,3,.31,6,.36,9.08s0,6-.18,9.07a86.6,86.6,0,0,1-1,9,57.07,57.07,0,0,0,1.57-9c.27-3,.36-6.08.33-9.12s-.22-6.08-.51-9.11A90.54,90.54,0,0,0,1026.06,882.3Z"/><path class="cls-39" d="M1030.59,849a7.54,7.54,0,0,1-8.44,1.39s-8,1.36-7.87-8.72c0,0-10.34-7-2.52-17.4,0,0-3.15-10.89,7.26-12.51,0,0,2.11-12.36,14.11-7.59,0,0,10.26-5.93,15.42,3.26,0,0,17.42,6,7.31,20.89Z"/><path class="cls-40" d="M1053.26,827.72c.09,2.28,1.63,4.07,3.46,4s3.23-2,3.15-4.24-1.63-4.07-3.46-4S1053.18,825.45,1053.26,827.72Z"/><path class="cls-36" d="M1057.79,839.22a16.79,16.79,0,0,0,0-3.17,31.8,31.8,0,0,0-1.73-8.12c-.17-.51-.31-1-.45-1.56A17.63,17.63,0,1,0,1022.44,838a3.81,3.81,0,0,0-3.24,1.16c-1.52,1.72-1,4.65,1.12,6.55s5.12,2.06,6.64.34a3.42,3.42,0,0,0,.52-.78c4.35,7.51,13.55,10.67,21.23,7.06a15.82,15.82,0,0,0,8-8.49,6.26,6.26,0,0,0,.32-.75A15,15,0,0,0,1057.79,839.22Z"/><path class="cls-41" d="M1037.63,830.82a1.54,1.54,0,0,1-1,2.69,1.46,1.46,0,0,1-1.1-.39,1.56,1.56,0,0,1,1-2.7A1.44,1.44,0,0,1,1037.63,830.82Z"/><path class="cls-41" d="M1049.41,826.41a1.54,1.54,0,0,1-1,2.69,1.44,1.44,0,0,1-1.1-.39,1.56,1.56,0,0,1,1-2.7A1.44,1.44,0,0,1,1049.41,826.41Z"/><path class="cls-39" d="M1037.52,828.41a14.14,14.14,0,0,0-2.2.72,7.11,7.11,0,0,0-1.85,1.16,6.59,6.59,0,0,0-1.4,1.67l-.16.24c-.05.08-.08.17-.13.25l-.26.51c-.17.34-.29.71-.49,1.08a8.18,8.18,0,0,1,.06-1.21l.13-.6a.42.42,0,0,1,.08-.3l.12-.29a5,5,0,0,1,1.44-2,5.41,5.41,0,0,1,2.23-1.15A5.12,5.12,0,0,1,1037.52,828.41Z"/><path class="cls-39" d="M1043.23,825.86a5.13,5.13,0,0,1,1.83-1.6,5.41,5.41,0,0,1,2.42-.63,5,5,0,0,1,2.44.56l.28.13.26.17.5.36a6.91,6.91,0,0,1,.85.86c-.38-.14-.72-.33-1.08-.47l-.54-.21-.26-.1-.27-.07a6.61,6.61,0,0,0-2.16-.31,6.91,6.91,0,0,0-2.16.38A12.41,12.41,0,0,0,1043.23,825.86Z"/><path class="cls-40" d="M1043.06,827.16c.43.91.86,1.79,1.34,2.65a10.37,10.37,0,0,0,.78,1.21,4,4,0,0,0,1,1l.14.06.15.08a2,2,0,0,1,.38.2,2.24,2.24,0,0,1,.34.27,1.31,1.31,0,0,1,.27.35,1.91,1.91,0,0,1,.1,1.65,2.94,2.94,0,0,1-.93,1.27,3.91,3.91,0,0,1-1.33.72,5.59,5.59,0,0,0,1.12-.94,2.89,2.89,0,0,0,.68-1.19,1.47,1.47,0,0,0-.14-1.21l-.08-.12-.11-.11a.88.88,0,0,0-.24-.19l-.28-.13-.38-.18a3.92,3.92,0,0,1-1.12-1.14A8.67,8.67,0,0,1,1044,830,13,13,0,0,1,1043.06,827.16Z"/><path class="cls-39" d="M1024.91,841.25c-3-4.65-.42-6.7,1-5.87s4.26,11.18,9,8.78c3-1.5,6-4.72,12.16-6.53,5.08-1.48,10-.76,10-6.08,0,0,9,14.48-7.81,21.41-17,7-24.31-11.71-24.31-11.71Z"/><path class="cls-39" d="M1022.44,838s5.73,1.52,4.14-1.84c-1.92-4-4.68-11.45,1.57-17.06s16.64-6.72,22.28-1.36-7.47-8.84-7.47-8.84-1.86-.71-8.06.75-5.55-.09-8,2.3-5.55,3.75-7.1,7.63-3.24,6.73-3.42,8-1.45,3.65-.8,5.25S1022.44,838,1022.44,838Z"/><path class="cls-17" d="M1052,838.62c.17,1.76-1.57,3.88-4.25,5s-5.41.86-6.54-.51Z"/></svg>