<svg id="Layer_1" data-name="Layer 1" xmlns="http://www.w3.org/2000/svg" viewBox="0 0 1920 1080"><defs><style>.cls-1{fill:#2e3652;}.cls-2{fill:#ecf3fb;}.cls-3{opacity:0.43;}.cls-16,.cls-4{fill:#fff;}.cls-5{opacity:0.9;}.cls-6{fill:#f1f7fc;}.cls-7{fill:#e0eaf7;}.cls-8{fill:#bedfb2;}.cls-9{fill:#82b379;}.cls-10{fill:#a8d29f;}.cls-11{fill:#a7c3e6;}.cls-12{fill:#b2cbea;}.cls-13{fill:#c9dbf1;}.cls-14{fill:#d2e3f5;}.cls-15{fill:#fbc98b;}.cls-16,.cls-24{opacity:0.5;}.cls-16,.cls-24,.cls-37{isolation:isolate;}.cls-17,.cls-24{fill:#381510;}.cls-18{fill:#cfdff3;}.cls-19{fill:#a94226;}.cls-20{fill:#f6e7e3;}.cls-21{fill:#531a19;}.cls-22{fill:#7a282b;}.cls-23{fill:#ae5a4a;}.cls-25{fill:#fbebdb;}.cls-26{fill:#729ad1;}.cls-27{fill:#5e8bc8;}.cls-28{fill:#f3d2b8;}.cls-29{fill:#b6473d;}.cls-30{fill:#5d8bc8;}.cls-31{fill:#6db7c0;}.cls-32{fill:#f89748;}.cls-33{fill:#8dd3d7;}.cls-34{fill:#eda04b;}.cls-35{fill:#fab179;}.cls-36{fill:#fac0bc;}.cls-37{fill:#f58d85;opacity:0.6;}.cls-38{fill:#f05c7e;}.cls-39{fill:#1f1d57;}.cls-40{fill:#f69794;}.cls-41{fill:#333;}.cls-42{fill:#fcb548;}.cls-43{fill:#fedda6;}</style></defs><title>Menara Bawah Baru</title><rect class="cls-1" x="497.64" y="1077.48" width="924.72" height="3.83" rx="1.91"/><rect class="cls-2" y="-2160" width="1920" height="3240"/><g class="cls-3"><path class="cls-4" d="M1233.67,186.78c14.54-9.34,35-7.48,47.72,4.35-6.21-36.48,13.82-77.81,48.14-88.73s76.64,17.36,75.78,54.39l.12-.23c10.42-19.73,28.68-37.09,50.44-37.86s43.73,22.07,36.58,43.37c13-10.71,30.48-17.3,46.56-12.77s28.68,22.86,23.56,39.22c9.65-9.39,28.78-1.54,29.54,12.12,11.16-5.52,42.41,2.78,38.35,20.78a11.28,11.28,0,0,1-4.58,6.48H1215.42C1213.25,212.16,1220.53,195.22,1233.67,186.78Z"/></g><g class="cls-5"><path class="cls-4" d="M1045.46,219.83c16.74-39,66.44-58.72,104.21-41.34,2.28-19.92,22.7-34.06,42.13-33.31s36.94,13.37,49,29.14c-2.4-19.81,7-40.65,23.18-51.55a51.82,51.82,0,0,1,55.1-1.09c.4-29.3,26-54.41,54.17-58s56.7,11.42,74.57,34.2,26.17,52.24,28.52,81.44c7.9-13.94,30-8,39.36,4.92,5,6.79,14.24,22.89,17.31,36.25H1047Z"/></g><path class="cls-2" d="M1355.88,1080.05l-351.67.12H825L536.72,1082c-.19-.8-.37-1.6-.55-2.39C505,941.28,599.67,943,625.83,900c9.32-15.3,9.95-36.26-6.88-71.23l-.24-.5a310.56,310.56,0,0,1-22.17-61.59c-10.12-42.06-9.42-82-.31-119a259.44,259.44,0,0,1,34.15-78.37,295.72,295.72,0,0,1,19.78-27.17c143.12-175,492.16-208.22,540.45,97.62,27.39,173.41,70.7,73.08,159.79,196.27,29.41,40.67,39.33,82.07,39.65,119C1390.68,1025.93,1355.88,1080.05,1355.88,1080.05Z"/><path class="cls-6" d="M928.87,607.13a234.72,234.72,0,0,1-5.21,30.12c-4.66,19.69-12,41.35-22.6,65.13-2.23,5-4.11,9.72-5.68,14.21L596.54,766.76c-10.12-42.06-9.42-82-.31-119l321.82-115.5a117.42,117.42,0,0,1,10.82,37.84A167.33,167.33,0,0,1,928.87,607.13Z"/><path class="cls-7" d="M1355.88,1080.05l-351.67.12H825L536.72,1082c-.19-.8-.37-1.6-.55-2.39C505,941.28,599.67,943,625.83,900c9.32-15.3,9.95-36.26-6.88-71.23l-.24-.5c91.85-50.44,91.52-45,189.45-23.19,120.85,27,220.33,58.25,269.59,24.27s155.46-9.45,184.66,39.5,22.71,97.46,53,93.39c21.61-2.9,48.71-17,74.65-7.24C1390.68,1025.93,1355.88,1080.05,1355.88,1080.05Z"/><path class="cls-6" d="M747.88,517.72l-117.5,51.69a295.72,295.72,0,0,1,19.78-27.17Z"/><path class="cls-8" d="M790.72,843.72s-41.74-9.18-70.07,21.85-11.59,84.06-35,90.92c-33.73,9.9-111.31,24.09-103.21,121.34.82,9.83,236.78,0,236.78,0L809.11,868.34Z"/><path class="cls-9" d="M1131.29,914.15s49.85-12.14,84.46,25.64,18.83,68.82,37.37,76.91,44.75,23.94,38.87,63.92H1124.48Z"/><path class="cls-9" d="M1337,1077.48h-22.5c-1.21-1.36.83-4.46,3-4.67a10.32,10.32,0,0,1,3.44.54c.3-5.49,2.07-30.16,8.75-29.17,7.5,1.11,0,10.87-2.13,16.64-1.57,4.28-3.22,10.42-4,13.31.61.18,1.24.35,1.88.51,1-4.07,4.7-17.76,9.4-17,5.52.93,3.3,6.42-.61,9.68-2.87,2.39-6.4,5.8-8.08,7.44a17.74,17.74,0,0,0,4.41.47C1334.41,1075.15,1336.29,1076.67,1337,1077.48Z"/><path class="cls-10" d="M882.27,1080.62s-7.54-36.18-38.91-48.32-29.35-6.07-57.68-27.66-72.85-8.09-82,9.45-30.35,27-59.69,26.31-30.83,37.43-30.83,37.43Z"/><path class="cls-11" d="M1244.57,727h-2.48v-.26l.75-8.82a.48.48,0,0,1,.42-.5h.08a.59.59,0,0,1,.37.22,1.07,1.07,0,0,1,.21.57Z"/><path class="cls-12" d="M1242.33,725h-.09l.62-7.08a.48.48,0,0,1,.42-.5h.08l.06.08a1,1,0,0,1,.18.59v5.09A1.65,1.65,0,0,1,1242.33,725Z"/><rect class="cls-11" x="1241.37" y="766.27" width="4.78" height="281.62"/><rect class="cls-12" x="1241.37" y="766.27" width="2.21" height="281.62"/><rect class="cls-11" x="1236.14" y="1002.95" width="15.24" height="74.51"/><rect class="cls-12" x="1236.14" y="1002.95" width="9.08" height="74.51"/><path class="cls-11" d="M1252.09,731.26c0,3.48-3.92,6.3-8.76,6.3a9.91,9.91,0,0,1-1.09,0c-4.32-.38-7.66-3-7.66-6.25s3.34-5.86,7.66-6.25h1.09C1248.17,725,1252.09,727.78,1252.09,731.26Z"/><path class="cls-12" d="M1247.55,731.26c0,2.81-2.19,5.21-5.31,6.25-4.32-.38-7.66-3-7.66-6.25s3.34-5.86,7.66-6.25C1245.36,726.05,1247.55,728.46,1247.55,731.26Z"/><polygon class="cls-12" points="1251.36 771.82 1236.12 771.82 1230.75 737.34 1255.91 737.34 1251.36 771.82"/><rect class="cls-11" x="1229.39" y="734.74" width="27.87" height="3.31"/><rect class="cls-12" x="1229.39" y="734.74" width="17.52" height="3.31"/><path class="cls-11" d="M1238.64,1003h9.73l-1.42-5.76a1,1,0,0,0-.89-.86h-4.56a1.26,1.26,0,0,0-1.13,1Z"/><polygon class="cls-13" points="1232.55 739.02 1254.04 739.02 1249.84 770.01 1237.51 770.01 1232.55 739.02"/><path class="cls-13" d="M1235.15,731.63s1.64-4.76,4.87-4.62c0,0-2,2.44-1.87,4.62S1235.15,731.63,1235.15,731.63Z"/><polygon class="cls-11" points="1255.49 734.74 1231.17 734.74 1233.17 730.96 1253.6 730.96 1255.49 734.74"/><polygon class="cls-12" points="1249.5 734.74 1231.17 734.74 1233.17 730.96 1247.61 730.96 1249.5 734.74"/><polygon class="cls-14" points="1233.98 740.1 1238.9 740.1 1240.34 769.04 1238.9 769.04 1233.98 740.1"/><rect class="cls-15" x="811.89" width="315.73" height="1050.94"/><rect class="cls-16" x="996.98" y="175.38" width="86.25" height="192.2"/><rect class="cls-17" x="999.09" y="178.91" width="82.04" height="185.15"/><path class="cls-12" d="M1018.6,177v54.09c-.06,4.11-.35,7.27-.69,7.27h-.1c-.32,0-.6-2.72-.68-6.4v-55.2Z"/><path class="cls-12" d="M1017.46,231.72c-5.45,0-9.86,7.83-9.86,17.49h19.72C1027.32,239.55,1022.9,231.72,1017.46,231.72Z"/><path class="cls-18" d="M1018.24,231.94a2.3,2.3,0,0,0-.86-.16c-3.55,0-6.43,7.8-6.43,17.43h1.74C1012.69,240.38,1015.11,233.09,1018.24,231.94Z"/><path class="cls-9" d="M1015.8,307.24s-4.86-9.5-.3-15.53c0,0,3.33-3.38,6-3.1,0,0-3.84,10.81-2.6,11.88s3.77-12.56,3.77-12.56,7.57-1.23,10,.73c0,0-6.48,8.89-5.11,9.41s8.36-8.19,8.36-8.19,7,2,6.67,9.22-2.8,9.44-3.87,9.25-7.32-4.19-7.45-2.72,3.62,6.26,6.25,6.48c0,0-5,9.19-8.27,6.54s-3.58-6.86-5.64-8.43-3.82-1.58-3,0,4.58,3.17,5.75,6.67,2.24,5.84-1.18,5-9-5-9.22-9.86Z"/><path class="cls-9" d="M1039.18,299.3s-19.15-1.24-23.38,7.94a27.86,27.86,0,0,1-3.81,9l-.45,2s3.31-5.87,4.5-6.23C1016,312,1014.19,300.67,1039.18,299.3Z"/><path class="cls-9" d="M1012,316.22s-4.11,5.09-4.4,14.2l.75.11s1.31-9.42,3.68-13.1S1012,316.22,1012,316.22Z"/><path class="cls-10" d="M1003.78,297.72l-1.16,3.8a1.94,1.94,0,0,1-.16.54h0a5.62,5.62,0,0,1-3.31,3.46V274.4c1.13.75,1.9,1.31,1.9,1.31s-.47,14.2,1,13.91,0-12.6,0-12.6c2.83,1.3,5.48,6.37,5.48,6.37C1010.87,291.64,1003.78,297.72,1003.78,297.72Z"/><path class="cls-9" d="M1005.67,308.3v2.17a.64.64,0,0,0-.07-.24h0c-.06-.23-.13-.43-.19-.64v-.27c-.13-.42-.28-.93-.46-1.48h0c-.71-2.22-1.73-5.12-2.42-5.73h0a3.68,3.68,0,0,0,.16-.54c.29-1.28.49-4.78-3.48-10.06v-1.89a18.29,18.29,0,0,1,4.64,8.15,33.71,33.71,0,0,0,1.89,10.57Z"/><path class="cls-9" d="M1005.67,308.3a29.21,29.21,0,0,1,1.32,15.79l-.79-.32s.76-9.55-.84-14.36S1005.67,308.3,1005.67,308.3Z"/><path class="cls-10" d="M1011.09,292.89s-8.54-8-4.56-18.9c0,0,3.19-6.68,6.61-8.4,0,0-1.83,16.23,0,16.61s1.25-18.33,1.25-18.33,9-7.25,12.52-6.68c0,0-5.58,15.85-3.75,15.47s8.08-16.42,8.08-16.42,9.23-2.87,10.71,6.3-.91,13.74-2.28,14.32-10.14.38-9.91,2.29,6.15,5,9.45,3.24c0,0-3.64,15.08-8.42,14.32s-6.27-5.73-9.23-6.11-5.12,1-3.64,2.29,6.49.44,8.88,3.85,4.33,5.51-.11,7-12.42.58-14-5.15Z"/><path class="cls-9" d="M1037.73,265.4s-23.91,13-26.64,27.49a48.19,48.19,0,0,1-2.28,13.94v2.86s2.5-9.73,3.87-11.07C1012.68,298.62,1007.33,286,1037.73,265.4Z"/><path class="cls-9" d="M1008.81,306.83a41.83,41.83,0,0,0-1.59,20.82l.95-.43s-.92-12.59,1-18.92S1008.81,306.83,1008.81,306.83Z"/><path class="cls-19" d="M1087.23,364h-1.84V171.79H994.93V364h-1.85c-4.61,0-8.35,6.27-8.35,14v.49h110.86V378C1095.59,370.26,1091.85,364,1087.23,364ZM999.14,178.84h82v34h-82Zm0,41.93h82V364h-82Z"/><rect class="cls-20" x="1000.62" y="181.88" width="79.32" height="6.69"/><rect class="cls-20" x="1000.62" y="192.39" width="79.32" height="6.69"/><rect class="cls-20" x="1000.62" y="202.89" width="79.32" height="6.69"/><rect class="cls-20" x="1000.62" y="212.73" width="79.32" height="6.69"/><rect class="cls-20" x="1000.62" y="223.78" width="79.32" height="6.69"/><rect class="cls-20" x="1004.31" y="178.73" width="0.77" height="57.16"/><rect class="cls-20" x="1075.95" y="178.73" width="0.77" height="57.16"/><rect class="cls-17" x="998.88" y="686.84" width="86.25" height="192.2"/><path class="cls-20" d="M1043.67,690.3s.21,56.8-34.16,104.81c0,0,7.16,62.6,6.14,80.34H999.14V690.3Z"/><path class="cls-20" d="M1045.92,690.3s6.28,46.51,35.26,63c0,0-.28,71.68-3.55,90.54s-4.09,31.64-4.09,31.64h7.64V690.3Z"/><path class="cls-19" d="M1087.23,875.45h-1.84V683.25H994.93v192.2h-1.85c-4.61,0-8.35,6.27-8.35,14V890h110.86v-.49C1095.59,881.72,1091.85,875.45,1087.23,875.45ZM999.14,690.3h82v34h-82Zm0,41.93h82V875.45h-82Z"/><rect class="cls-21" x="807.73" y="1005.82" width="324.06" height="45.12"/><rect class="cls-22" x="807.73" y="1034.7" width="324.06" height="22.94"/><rect class="cls-23" x="807.73" y="1057.03" width="324.06" height="20.46"/><rect class="cls-24" x="859.67" y="686.84" width="86.25" height="192.2"/><rect class="cls-17" x="861.78" y="690.36" width="82.04" height="185.15"/><path class="cls-19" d="M949.92,875.45h-1.84V683.25H857.62v192.2h-1.85c-4.61,0-8.35,6.27-8.35,14V890H958.28v-.49C958.28,881.72,954.54,875.45,949.92,875.45ZM861.83,690.3h82v34h-82Zm0,41.93h82V875.45h-82Z"/><rect class="cls-20" x="863.32" y="693.34" width="79.32" height="6.69"/><rect class="cls-20" x="863.32" y="703.84" width="79.32" height="6.69"/><rect class="cls-20" x="863.32" y="714.35" width="79.32" height="6.69"/><rect class="cls-20" x="863.32" y="724.18" width="79.32" height="6.69"/><rect class="cls-20" x="863.32" y="735.24" width="79.32" height="6.69"/><rect class="cls-20" x="867" y="690.19" width="0.77" height="57.16"/><rect class="cls-20" x="938.64" y="690.19" width="0.77" height="57.16"/><path class="cls-25" d="M910.14,863.18h9.94a3.42,3.42,0,0,1,3.42,3.42h0a3.5,3.5,0,0,1-3.5,3.5h-9.87v-6.91Z"/><path class="cls-26" d="M933.46,866v1a4.36,4.36,0,0,1-.24,1.52c-.31.9-.9,1.51-1.56,1.51H909.78c-.15,0-.26-.2-.26-.44v-.16c0-.24.11-.44.26-.44h13.34a3.8,3.8,0,0,0,.18-.47,4.23,4.23,0,0,0,.2-1.32V866a4.17,4.17,0,0,0-.06-.71,3.52,3.52,0,0,0-.31-1H909.78c-.15,0-.26-.2-.26-.44v-.16c0-.24.11-.44.26-.44h22c.77,0,1.43.87,1.63,2.06A5.34,5.34,0,0,1,933.46,866Z"/><path class="cls-27" d="M933.4,865.24h-10a3.52,3.52,0,0,0-.31-1H909.78c-.15,0-.26-.2-.26-.44v-.16c0-.24.11-.44.26-.44h22C932.54,863.18,933.2,864.05,933.4,865.24Z"/><polygon class="cls-28" points="910.13 866.64 911.75 866.76 910.13 866.83 910.13 866.64"/><polygon class="cls-28" points="910.13 867.72 913.99 867.84 910.13 867.91 910.13 867.72"/><path class="cls-29" d="M912.63,875.45h12.43v-5.38H912.53c-.86,0-1.55,1.17-1.55,2.61h0C911,874.21,911.72,875.45,912.63,875.45Z"/><path class="cls-25" d="M938.5,875.46h-13a2.72,2.72,0,0,1-2.72-2.72h0a2.66,2.66,0,0,1,2.66-2.66h13.1v5.38Z"/><path class="cls-29" d="M921.79,875.45H939c.13,0,.24-.18.24-.4h0c0-.22-.11-.4-.24-.4H921.8c-.13,0-.24.18-.24.4h0C921.55,875.27,921.66,875.45,921.79,875.45Z"/><path class="cls-29" d="M921.79,870.88H939c.13,0,.24-.18.24-.4h0c0-.23-.11-.41-.24-.41H921.8c-.13,0-.24.18-.24.41h0C921.55,870.7,921.66,870.88,921.79,870.88Z"/><polygon class="cls-28" points="938.5 872.76 936.59 872.85 938.5 872.91 938.5 872.76"/><polygon class="cls-28" points="938.5 871.52 933.95 871.62 938.5 871.67 938.5 871.52"/><path class="cls-26" d="M934,871.6a1.51,1.51,0,0,1,.26.61v1.86l.57-.57.58.57v-1.55a1.67,1.67,0,0,0-.15-.76.17.17,0,0,0-.15-.16Z"/><path class="cls-30" d="M934,871.6a1.51,1.51,0,0,1,.26.61h1.15s0-.54-.28-.63Z"/><rect class="cls-17" x="857.88" y="175.38" width="86.25" height="192.2"/><path class="cls-20" d="M899.33,178.84s-.2,56.8,34.16,104.81c0,0-7.16,62.6-6.13,80.34h16.51V178.84Z"/><path class="cls-20" d="M897.08,178.84s-6.27,46.51-35.25,63c0,0,.27,71.68,3.55,90.54S869.47,364,869.47,364h-7.64V178.84Z"/><path class="cls-19" d="M847.42,378v.49H958.28V378c0-7.74-3.74-14-8.36-14h-1.84V171.79H857.62V364h-1.85C851.16,364,847.42,370.26,847.42,378Zm96.45-165.17h-82v-34h82Zm0,151.16h-82V220.77h82Z"/><path class="cls-31" d="M929.92,350s2.92,2,5-3C934.91,347,931.55,346.08,929.92,350Z"/><path class="cls-31" d="M929.72,348s-.21-1.75-1.43-1.81C928.29,346.18,928.75,348,929.72,348Z"/><path class="cls-31" d="M930.33,337.77s1.41.26,1.94-2.34A2.75,2.75,0,0,0,930.33,337.77Z"/><path class="cls-31" d="M933.68,303.47c-2.85-1-2.89-4.93-2.89-4.93A5,5,0,0,1,933.68,303.47Z"/><path class="cls-31" d="M933.88,302.58s1.78,1.21,3-1.83A2.59,2.59,0,0,0,933.88,302.58Z"/><path class="cls-31" d="M930,361.49l-.37.71c-.06.11-.16,0-.16-.1a425.38,425.38,0,0,1,2.82-48.53c1.4-11.5,2.81-18.31,2.83-18.37h0c0,.06-1.29,7-2.69,18.45A320.41,320.41,0,0,0,930,361.22.62.62,0,0,1,930,361.49Z"/><path class="cls-32" d="M935.07,292.46c-.45.61-2.19,3.22-.5,5.23,0,0,1.29.69,1.72-1a16.68,16.68,0,0,0,.44-3.3c0-.16-.07-.29-.16-.31a.8.8,0,0,1-.36-.14c-.16-.1-.25-.51-.46-.6a.89.89,0,0,0-.43-.08A.39.39,0,0,0,935.07,292.46Z"/><path class="cls-31" d="M934.11,297a2.47,2.47,0,0,1,.32,1.8v.41a2,2,0,0,1,.77-1.34S934.63,297.94,934.11,297Z"/><path class="cls-33" d="M933.68,303.47c-2.85-1-2.89-4.93-2.89-4.93A10.75,10.75,0,0,1,933.68,303.47Z"/><path class="cls-31" d="M931,300.8s-1.8,1.15-3-1.93A2.65,2.65,0,0,1,931,300.8Z"/><path class="cls-31" d="M934.14,359.83l.36.72c.06.11.16,0,.16-.1a426.61,426.61,0,0,0-2.24-48.61c-1.26-11.55-2.59-18.4-2.61-18.47h0c0,.07,1.21,7,2.47,18.54a321.23,321.23,0,0,1,1.8,47.64A.67.67,0,0,0,934.14,359.83Z"/><path class="cls-32" d="M929.87,290.63c.45.63,2.16,3.3.45,5.25,0,0-1.31.65-1.72-1a16.81,16.81,0,0,1-.39-3.31c0-.16.06-.29.16-.3a.92.92,0,0,0,.36-.13c.16-.1.25-.5.47-.58a.79.79,0,0,1,.43-.07A.45.45,0,0,1,929.87,290.63Z"/><path class="cls-31" d="M930.78,295.17a2.45,2.45,0,0,0-.34,1.79v.41a2.09,2.09,0,0,0-.76-1.37S930.25,296.13,930.78,295.17Z"/><path class="cls-31" d="M931.7,297.28s1.9.53,2.74-2.9A3.41,3.41,0,0,0,931.7,297.28Z"/><path class="cls-31" d="M935.56,356.19l-.27.83c0,.13-.15.1-.17,0a425.77,425.77,0,0,1-3.55-48.39c-.14-11.74.36-18.9.36-19h0c0,.07-.35,7.28-.21,19a316,316,0,0,0,3.86,47.29A.5.5,0,0,1,935.56,356.19Z"/><path class="cls-32" d="M931.55,287c-.36.77-1.72,3.95.19,5.3,0,0,1.35.2,1.55-1.59a17.35,17.35,0,0,0,0-3.38c0-.16-.1-.26-.19-.24a1.21,1.21,0,0,1-.38,0c-.17,0-.3-.41-.52-.42a.71.71,0,0,0-.43.08A.59.59,0,0,0,931.55,287Z"/><path class="cls-31" d="M931.2,291.7a2,2,0,0,1,.55,1.64v.4a2.5,2.5,0,0,1,.57-1.59S931.83,292.47,931.2,291.7Z"/><path class="cls-31" d="M933.27,293.74s0-2.51,1.29-3.3A3.79,3.79,0,0,1,933.27,293.74Z"/><path class="cls-34" d="M930.23,289.71s0-1.92-1-2.47A2.59,2.59,0,0,0,930.23,289.71Z"/><path class="cls-34" d="M933.7,301.24a4.22,4.22,0,0,0-.49-3.41A5,5,0,0,0,933.7,301.24Z"/><path class="cls-31" d="M934.44,301.09s0-1,.53-1.1A1.13,1.13,0,0,1,934.44,301.09Z"/><path class="cls-31" d="M929,297.83s-.46-1.59-1.93-1.31a1.52,1.52,0,0,0,1.64,1.37A1.36,1.36,0,0,0,929,297.83Z"/><path class="cls-32" d="M937.13,363.85h-9.4c-.63,0-1.11-.94-1-2l4.37-50.52c0-.47.28-.82.57-.82H933c.3,0,.56.37.61.87l4.47,50.52C938.21,362.93,937.74,363.85,937.13,363.85Z"/><path class="cls-35" d="M929.81,362.32l2.32-51.79c-.25.06-.45.38-.49.81l-4.37,50.52c-.09,1.05.4,2,1,2h1.87A2.76,2.76,0,0,1,929.81,362.32Z"/><path class="cls-32" d="M1011.29,363.85h-9.39c-.64,0-1.12-.94-1-2l4.37-50.52c0-.47.28-.82.57-.82h1.39c.31,0,.56.37.61.87l4.47,50.52C1012.38,362.93,1011.9,363.85,1011.29,363.85Z"/><path class="cls-35" d="M1004,362.32l2.32-51.79a.84.84,0,0,0-.49.81l-4.38,50.52c-.09,1.05.4,2,1,2h1.88A2.59,2.59,0,0,1,1004,362.32Z"/><rect class="cls-22" x="851.01" y="126.86" width="103.93" height="37.26"/><rect class="cls-22" x="988.14" y="126.86" width="103.93" height="37.26"/><rect class="cls-22" x="851.01" y="631.66" width="103.93" height="37.26"/><rect class="cls-22" x="988.14" y="631.66" width="103.93" height="37.26"/><path class="cls-36" d="M1051.14,300.9l-5.22,10.4s14.38,5.76,14.74,5,4.45-8.17,4.45-8.17Z"/><path class="cls-37" d="M1049.4,304.37s-.11,7.61,12.45,9.65l1.68-3c.23,0-12.91-9.06-12.91-9.06Z"/><path class="cls-36" d="M1043,308.57s15.12,4.06,21.5,8.27-18.28,7-18.28,7-5.06.79-6.06-2.47-3.84-5.37-2.61-6.82S1043,308.57,1043,308.57Z"/><path class="cls-38" d="M1065.32,316.43s-18.63,13.44-22.42-8.52c0,0-22.12-1-37.37,3.87S989.76,324,990.69,332s10.44,33.77,10.44,33.77h77.5S1084,327.07,1065.32,316.43Zm-49.4,28.34-1.3-9.94,5.29-1.23Z"/><path class="cls-39" d="M1023.4,332c-2.41.84-4.84,1.61-7.31,2.32-.61.19-1.23.36-1.85.52l-1.86.5c-1.24.33-2.49.62-3.75.88a52.55,52.55,0,0,0,5.85-1c.28,2.53,2.1,17.7,7.68,31.19l.32-.12c-5.6-13.54-7.4-28.77-7.66-31.15l1.42-.34c2.5-.62,5-1.37,7.4-2.2a86.44,86.44,0,0,0,14-6.26C1035.28,327.31,1031.82,329,1023.4,332Z"/><path class="cls-39" d="M1072.91,335c-.2,1.79-.46,3.57-.73,5.35q-.84,5.36-2,10.64l-.58,2.64c-.19.88-.42,1.76-.63,2.64-.39,1.76-.86,3.5-1.3,5.26-.21.87-.46,1.74-.7,2.62l-.48,1.75h.39c.45-1.42.91-2.83,1.31-4.27q1.51-5.22,2.66-10.53c.74-3.55,1.39-7.11,1.84-10.7a76.56,76.56,0,0,0,.7-10.81C1073.31,331.39,1073.14,333.18,1072.91,335Z"/><path class="cls-39" d="M1021.37,318.29a7.35,7.35,0,0,1-.56,1.25q-.33.58-.72,1.14c-.27.37-.55.73-.85,1.07a7.87,7.87,0,0,1-1,1,7.4,7.4,0,0,1,.57-1.25,12.33,12.33,0,0,1,.72-1.15c.26-.37.55-.72.85-1.07A7.72,7.72,0,0,1,1021.37,318.29Z"/><path class="cls-39" d="M1044.32,339a6.8,6.8,0,0,1,.14,1.35c0,.44,0,.89,0,1.33s-.12.88-.21,1.32a6.61,6.61,0,0,1-.4,1.31,6.9,6.9,0,0,1-.14-1.36c0-.44,0-.89.06-1.33a12,12,0,0,1,.2-1.32A8.31,8.31,0,0,1,1044.32,339Z"/><path class="cls-39" d="M1031.73,333.9a6.7,6.7,0,0,1-.92,1c-.33.32-.68.62-1,.91s-.75.55-1.14.79a6.83,6.83,0,0,1-1.26.65,6.7,6.7,0,0,1,.92-1c.32-.32.65-.62,1-.91s.75-.55,1.14-.79A8.33,8.33,0,0,1,1031.73,333.9Z"/><path class="cls-39" d="M1052.91,326a6.54,6.54,0,0,1,.37,1.31,11.83,11.83,0,0,1,.19,1.33V330a7.66,7.66,0,0,1-.16,1.35,6.56,6.56,0,0,1-.38-1.31,11.89,11.89,0,0,1-.21-2.66A6.1,6.1,0,0,1,1052.91,326Z"/><path class="cls-39" d="M1037.13,318.36a6.75,6.75,0,0,1-1,1,12.7,12.7,0,0,1-1.07.87,11,11,0,0,1-1.16.76,7.89,7.89,0,0,1-1.28.61,6.9,6.9,0,0,1,1-1,12.7,12.7,0,0,1,1.07-.87,11,11,0,0,1,1.16-.76A9.39,9.39,0,0,1,1037.13,318.36Z"/><path class="cls-39" d="M1040.88,312.18a8.47,8.47,0,0,1-1.42-.17,13,13,0,0,1-1.37-.34,12.17,12.17,0,0,1-1.32-.47,8.33,8.33,0,0,1-1.26-.65,7.53,7.53,0,0,1,1.42.16c.47.09.92.21,1.37.34a12.23,12.23,0,0,1,1.32.48A6.83,6.83,0,0,1,1040.88,312.18Z"/><path class="cls-39" d="M1063.6,323.71a7.42,7.42,0,0,1,.94,1q.42.54.78,1.11A10.62,10.62,0,0,1,1066,327a7.31,7.31,0,0,1,.48,1.28,7.87,7.87,0,0,1-1-1,13,13,0,0,1-1.42-2.31A6.34,6.34,0,0,1,1063.6,323.71Z"/><path class="cls-39" d="M1067,340.54a6.64,6.64,0,0,1,.56,1.25,11.71,11.71,0,0,1,.38,1.28,9.88,9.88,0,0,1,.24,1.32,6.09,6.09,0,0,1,0,1.35,7,7,0,0,1-.57-1.24,11.25,11.25,0,0,1-.38-1.29,11.58,11.58,0,0,1-.23-1.31A6.18,6.18,0,0,1,1067,340.54Z"/><path class="cls-39" d="M1056.08,344.06a6.88,6.88,0,0,1,.05,1.36,11.74,11.74,0,0,1-.13,1.33,11.61,11.61,0,0,1-.29,1.3,6,6,0,0,1-.48,1.28,7.61,7.61,0,0,1,0-1.35,10.77,10.77,0,0,1,.42-2.64A7.13,7.13,0,0,1,1056.08,344.06Z"/><path class="cls-39" d="M1035.17,346.87a7.88,7.88,0,0,1-.73,1.17,9.31,9.31,0,0,1-.87,1c-.31.33-.64.65-1,1a7.63,7.63,0,0,1-1.13.83,7.08,7.08,0,0,1,.72-1.17,19.74,19.74,0,0,1,1.87-2A7.23,7.23,0,0,1,1035.17,346.87Z"/><path class="cls-39" d="M1026.36,348.51a7.08,7.08,0,0,1-.72,1.17,11,11,0,0,1-.87,1.05,11.8,11.8,0,0,1-1,1,7.7,7.7,0,0,1-1.13.84,6.74,6.74,0,0,1,.73-1.17,12.56,12.56,0,0,1,.87-1.06,11.3,11.3,0,0,1,1-.95A7.89,7.89,0,0,1,1026.36,348.51Z"/><path class="cls-39" d="M1029.64,359.73a5.88,5.88,0,0,1-.73,1.17,13.61,13.61,0,0,1-.91,1.1,11.8,11.8,0,0,1-1,1,7,7,0,0,1-1.13.84,7.08,7.08,0,0,1,.72-1.17,11,11,0,0,1,.87-1.05,11.8,11.8,0,0,1,1-1A8.48,8.48,0,0,1,1029.64,359.73Z"/><path class="cls-39" d="M1048.72,354.12a6.69,6.69,0,0,1-.32,1.32,11.32,11.32,0,0,1-.49,1.26,12.25,12.25,0,0,1-.63,1.19,6.39,6.39,0,0,1-.81,1.12,6.69,6.69,0,0,1,.32-1.32,11.17,11.17,0,0,1,.49-1.25q.29-.62.63-1.2A6.39,6.39,0,0,1,1048.72,354.12Z"/><path class="cls-39" d="M1038.2,357.1a7.72,7.72,0,0,1,0,1.36,11.75,11.75,0,0,1-.14,1.33,11.61,11.61,0,0,1-.29,1.3,7.31,7.31,0,0,1-.48,1.28,7.61,7.61,0,0,1,0-1.35,9.83,9.83,0,0,1,.14-1.33,11.78,11.78,0,0,1,.29-1.31A6,6,0,0,1,1038.2,357.1Z"/><path class="cls-39" d="M1057.25,358.86a6.2,6.2,0,0,1,.25,1.34,11.85,11.85,0,0,1,.07,1.33,6.56,6.56,0,0,1-.09,1.33,6.72,6.72,0,0,1-.29,1.33,6,6,0,0,1-.25-1.33,10.84,10.84,0,0,1,0-2.67A6.12,6.12,0,0,1,1057.25,358.86Z"/><path class="cls-39" d="M1063.09,354.77a6.12,6.12,0,0,1,.31,1.33,11.74,11.74,0,0,1,.13,1.33v1.33a6.83,6.83,0,0,1-.23,1.34,6.66,6.66,0,0,1-.31-1.32,9.81,9.81,0,0,1-.12-1.33,10,10,0,0,1,0-1.34A6.81,6.81,0,0,1,1063.09,354.77Z"/><path class="cls-39" d="M1022.24,313.09a7.18,7.18,0,0,1-1.37-.4,11.26,11.26,0,0,1-1.28-.56,13,13,0,0,1-1.21-.69,7.77,7.77,0,0,1-1.13-.85,8.37,8.37,0,0,1,1.38.4c.44.17.86.35,1.28.56a13,13,0,0,1,1.21.69A7.68,7.68,0,0,1,1022.24,313.09Z"/><path class="cls-39" d="M1002.55,319.49a6.4,6.4,0,0,1-.84,1.1,11.8,11.8,0,0,1-1,1,12.84,12.84,0,0,1-1.08.87,8.27,8.27,0,0,1-1.21.73,6.4,6.4,0,0,1,.84-1.1,11.8,11.8,0,0,1,1-1q.53-.46,1.08-.87A8.27,8.27,0,0,1,1002.55,319.49Z"/><path class="cls-39" d="M999.13,331.14a6.77,6.77,0,0,1-.35,1.32c-.15.42-.33.84-.52,1.24a10.54,10.54,0,0,1-.67,1.18,6.82,6.82,0,0,1-.84,1.1,6.49,6.49,0,0,1,.35-1.31,11.27,11.27,0,0,1,.53-1.24,12.31,12.31,0,0,1,.66-1.18A7,7,0,0,1,999.13,331.14Z"/><path class="cls-39" d="M1005.11,355.86a7.69,7.69,0,0,1,.24,1.34c0,.44,0,.89,0,1.33a9.8,9.8,0,0,1-.1,1.33,6.72,6.72,0,0,1-.29,1.33,6.88,6.88,0,0,1-.25-1.34,11.83,11.83,0,0,1,0-2.66A6.8,6.8,0,0,1,1005.11,355.86Z"/><path class="cls-39" d="M1011.33,359.28a7,7,0,0,1,1.21.72,11,11,0,0,1,1.09.85c.35.3.68.62,1,.95a7.58,7.58,0,0,1,.86,1.1,7.11,7.11,0,0,1-1.22-.72,12.75,12.75,0,0,1-1.09-.85,11.8,11.8,0,0,1-1-1A6.62,6.62,0,0,1,1011.33,359.28Z"/><path class="cls-39" d="M1007.79,345.74a7.14,7.14,0,0,1,1.24.69,12.86,12.86,0,0,1,1.12.82,12.51,12.51,0,0,1,1,.93,7.54,7.54,0,0,1,.89,1.07,7.14,7.14,0,0,1-1.24-.69,11.07,11.07,0,0,1-1.12-.82,12.51,12.51,0,0,1-1-.93A7.54,7.54,0,0,1,1007.79,345.74Z"/><path class="cls-36" d="M1025.21,364.28c-2.92-1.77-6.65-1.78-9.69-1.33l-.44.09c-2.39.51-2.3,1.84-2.12,2.45a.46.46,0,0,0,.43.32,7.39,7.39,0,0,1,1.48.12c3.74.43,0,4.82,1.44,4.89,1.84.1,1.49-4,2.45-3.91,1.81.2-.5,3.77.69,4s.38-4.15,2.46-4c1.11.11-.43,4.09.88,3.84s.35-3.84,1.62-3.73c1.87.16-.58,3.6.8,3.84C1026,371.08,1027.28,365.54,1025.21,364.28Z"/><polygon class="cls-39" points="1087.65 290.1 1082.81 298.84 1080.87 298.83 1085.11 287.19 1087.65 290.1"/><path class="cls-40" d="M1080.77,296.41c-1.65,1.65-1.85,4-.46,5.24s3.86.92,5.51-.73,1.85-4,.46-5.24S1082.42,294.76,1080.77,296.41Z"/><path class="cls-36" d="M1082.69,298.56c.26-.49.55-.95.84-1.41a17,17,0,0,0,2.45-6.36,17.38,17.38,0,0,0-10.32-18.54c-9.91-4.45-21.47.07-25.33,9.48a4.09,4.09,0,0,0-3.26-1.48c-2.41.11-4.24,2.52-4.09,5.36s2.23,5.06,4.64,4.95a4.2,4.2,0,0,0,1-.18c-.88,7.63,1.67,14.86,10.67,19.41a14.42,14.42,0,0,0,11.94.27C1076.22,308.45,1080.3,303.05,1082.69,298.56Z"/><path class="cls-41" d="M1065.39,288.41a1.63,1.63,0,0,1-1.82,1.43,1.57,1.57,0,0,1-.76-.29,1.49,1.49,0,0,1-.66-1.33,1.64,1.64,0,0,1,1.82-1.44,1.66,1.66,0,0,1,.77.3A1.46,1.46,0,0,1,1065.39,288.41Z"/><path class="cls-41" d="M1078.13,293.77a1.63,1.63,0,0,1-1.82,1.43,1.57,1.57,0,0,1-.76-.29,1.49,1.49,0,0,1-.66-1.33,1.64,1.64,0,0,1,1.82-1.44,1.66,1.66,0,0,1,.77.3A1.46,1.46,0,0,1,1078.13,293.77Z"/><path class="cls-42" d="M1068.24,286.63a15.47,15.47,0,0,0-1.9-1.43,8.1,8.1,0,0,0-2-.93,7.63,7.63,0,0,0-2.23-.34,22,22,0,0,0-2.43.13,5.73,5.73,0,0,1,7.3.47A4.82,4.82,0,0,1,1068.24,286.63Z"/><path class="cls-42" d="M1074.24,289.06a5.24,5.24,0,0,1,2.52-.55,5.79,5.79,0,0,1,2.58.64,5.19,5.19,0,0,1,2,1.72,5,5,0,0,1,.86,2.3c-.5-.61-1-1.2-1.58-1.76a7.9,7.9,0,0,0-1.8-1.29,8,8,0,0,0-2.12-.75A15.61,15.61,0,0,0,1074.24,289.06Z"/><path class="cls-40" d="M1070.78,289.26a20.39,20.39,0,0,1,.58,2.9,18.81,18.81,0,0,1,.18,3,8.56,8.56,0,0,1-.2,1.51c-.2.66-.43.83-.7.94a3.09,3.09,0,0,1-.59.18,8.51,8.51,0,0,1-1.59.18,10.21,10.21,0,0,1-1.56-.09,19.2,19.2,0,0,0,3-.6c.6-.19.7-.32.79-.76a7.2,7.2,0,0,0,.14-1.39v-2.89C1070.83,291.27,1070.75,290.25,1070.78,289.26Z"/><path class="cls-42" d="M1092,280.26s5.18,1.94,1.27-4.11-16.79-16-28-14.45c0,0-.45-4.45-3.53-4.47s.44,4.13.44,4.13-3.45-1.29-5.13,0c-1.24.93.88,1.71,2.07,2.05-2.11-.35-10,1.07-11.67,16.89,1.46.17,15.39-5.27,15.39-5.27s11.6,13.39,11.48,8c0,0,14.36,14.36,15.15,4.54C1089.42,287.53,1096.33,290.43,1092,280.26Z"/><path class="cls-42" d="M1047.4,280.26a3.65,3.65,0,0,1,2.93,1.47c1.3,1.61,0,5.85,0,5.85s2.65,7.62,12.54-12.68c9.72-19.95-8.38-.76-8.38-.76Z"/><path class="cls-4" d="M1071.37,302.91c-1.53,1.86-4.64,2.41-7.44,1.17s-4.35-3.84-3.82-6.15Z"/><path class="cls-22" d="M1127.16,20.7H813.69c-3.3,0-6-9.27-6-20.7h0c0-11.43,2.66-20.7,6-20.7h313.47c3.3,0,6,9.27,6,20.7h0C1133.13,11.43,1130.46,20.7,1127.16,20.7Z"/><path class="cls-22" d="M1127.16,530.7H813.69c-3.3,0-6-9.27-6-20.7h0c0-11.43,2.66-20.7,6-20.7h313.47c3.3,0,6,9.27,6,20.7h0C1133.13,521.43,1130.46,530.7,1127.16,530.7Z"/><path class="cls-43" d="M846.54,268.79a6.11,6.11,0,0,0-3.07-4.7c-2-1-3.92-2-6.29-1.77-1.88.18-3.82.53-5.68.87a22.68,22.68,0,0,0-3.63,1,7.28,7.28,0,0,0-3.24,1.69l-.31.09a5,5,0,0,0-3.5,4.06,4.82,4.82,0,0,0,2.34,4.88l.93.42c.24.12,1,.67.25,0-.42-.34-.47-.38-.13-.12l1.29,1a9.49,9.49,0,0,0,2.2,1,20.64,20.64,0,0,0,5.45,1,22.26,22.26,0,0,0,4-.21,23.87,23.87,0,0,0,2.65-.4,8.66,8.66,0,0,0,3.62-2.05,14.24,14.24,0,0,0,1.32-1.37A6.44,6.44,0,0,0,846.54,268.79Z"/><path class="cls-43" d="M877.81,436.86c-.6-4.94-3.57-7.93-7.63-9.72-3.15-1.4-6.78-1.34-10.14-1.37-2.55,0-5.12.14-7.67.24a61.12,61.12,0,0,0-9.63,1.13,24.87,24.87,0,0,0-8.31,3.18c-3.77,2.42-5.22,9.32-1.49,12.68a17.45,17.45,0,0,0,5.81,3.72l-.88-.35a7.28,7.28,0,0,0,1.71.88c.8.37,1.63.83,2.47,1.12a47.09,47.09,0,0,0,10.32,2.06,76.31,76.31,0,0,0,8,.63c1.34,0,2.68,0,4-.1a22.19,22.19,0,0,0,8.3-2.45,10.57,10.57,0,0,0,3.82-4.19A12.53,12.53,0,0,0,877.81,436.86Z"/><path class="cls-43" d="M897.79,459.25l-.35-.05a3.34,3.34,0,0,0-1.64-.6h-.16a5.13,5.13,0,0,0-1.87-1l-.61-.09H893l-1-.18a32,32,0,0,0-3.24-.47,14.35,14.35,0,0,0-3.64.26l1.83-.27a21.76,21.76,0,0,0-4,.7c-.34.12-.69.21-1,.33a6.81,6.81,0,0,0-1.92,1.06c-.52.23-1,.46-1.54.73a5.84,5.84,0,0,0-2.24,2.2,4.19,4.19,0,0,0-.55,3.83c.45,2.19,2.48,3.67,4.28,4.6a6.54,6.54,0,0,0,2.31,1.2,13.23,13.23,0,0,0,3.18.6,14.86,14.86,0,0,0,1.63-.1,16.16,16.16,0,0,0,2.39-.33,19.65,19.65,0,0,0,4.94-2.86,9.12,9.12,0,0,0,2.64-2.82,6.84,6.84,0,0,0,.36-1.08h0a10.87,10.87,0,0,0,.9-1.24c.1-.27.2-.53.31-.8a4.26,4.26,0,0,0,.06-.5l.33-.53a1.72,1.72,0,0,0-.56-2.35A1.64,1.64,0,0,0,897.79,459.25Z"/><path class="cls-43" d="M984,418.46a7,7,0,0,0-1.91-4.38l1,1.25c-2.55-4.61-8.63-3.6-13.07-3.78-1.52-.07-3-.11-4.54-.07a23.59,23.59,0,0,0-3.55.44c-.3.06-.6.11-.9.19a6.83,6.83,0,0,0-1.51.61c-1.33,1-1.5,1.16-.49.4a5.12,5.12,0,0,0-1.63,7,5.49,5.49,0,0,0,.63.81q-1.18-1.5.38.5l1.12.87a6.13,6.13,0,0,0,1,.48,18.15,18.15,0,0,0,3.27,1.23,43.37,43.37,0,0,0,6,.87c4.47.36,10.69,1.38,13.27-3.33l-.39.51A5.75,5.75,0,0,0,984,418.46Z"/><path class="cls-43" d="M989.79,401.32v-.16a1.59,1.59,0,0,0-1.35-1.55,3.46,3.46,0,0,0-1.38-.52h.15l-.36,0a3.89,3.89,0,0,0-2.14,0l-.24,0a5.44,5.44,0,0,0-1.66.66,6.61,6.61,0,0,0-2.15,1.67l-.11.12-.17.14-.43.55c-.29.24-.4.43-.35.57a.39.39,0,0,0-.1.54l0,.05h.07a2.83,2.83,0,0,0,1.21,2.48,4,4,0,0,0,2.42,1.25,12.81,12.81,0,0,0,1.5.19,6.92,6.92,0,0,0,1.57-.23,4.52,4.52,0,0,0,1.4-.67,4.89,4.89,0,0,0,1.62-1.64c.14-.28.27-.56.39-.85a3.63,3.63,0,0,0,.34-1.45A3.23,3.23,0,0,0,989.79,401.32Z"/><path class="cls-43" d="M1088,468.75a8.08,8.08,0,0,0-2.19-5l1.11,1.45c-2.93-5.31-9.93-4.14-15-4.35-1.75-.08-3.47-.13-5.22-.08a25.69,25.69,0,0,0-4.09.51c-.35.07-.69.12-1,.21a8.26,8.26,0,0,0-1.74.71q-2.31,1.77-.57.45c-3.2,2.37-3.66,5.92-1.16,9-.9-1.15-.76-.95.44.58l1.29,1a7.86,7.86,0,0,0,1.13.55,21.15,21.15,0,0,0,3.77,1.42,50.21,50.21,0,0,0,7,1c5.13.41,12.29,1.58,15.26-3.83l-.45.58A6.59,6.59,0,0,0,1088,468.75Z"/><path class="cls-43" d="M1097.9,441.92a.21.21,0,0,0,0-.11v-.08a1.85,1.85,0,0,0-1.56-1.78,3.93,3.93,0,0,0-1.59-.59h.18l-.42-.06a4.67,4.67,0,0,0-2.46,0l-.27.05a7.4,7.4,0,0,0-1.92.76,7.84,7.84,0,0,0-2.46,1.93l-.14.13-.19.17-.49.63c-.33.28-.47.49-.4.65a.45.45,0,0,0-.13.61l.06.07a.23.23,0,0,1,.07.07,3.29,3.29,0,0,0,1.4,2.84,4.59,4.59,0,0,0,2.78,1.44,12.59,12.59,0,0,0,1.73.22,7.84,7.84,0,0,0,1.8-.27,4.86,4.86,0,0,0,1.61-.76,5.54,5.54,0,0,0,1.87-1.89,10.11,10.11,0,0,0,.45-1,4.34,4.34,0,0,0,.39-1.66A4,4,0,0,0,1097.9,441.92Z"/><path class="cls-43" d="M893.17,62.07c-3.54-2.14-8.09-2-12.12-1.87a30.08,30.08,0,0,0-6.14.52,14.59,14.59,0,0,0-3,1.17,15.71,15.71,0,0,0-2,1.32l-.27.21a1.66,1.66,0,0,0-.26.27c-.92,1.23-1,1.33-.29.3a4.83,4.83,0,0,0-1.39,4.25,5.06,5.06,0,0,0,2.41,3.7c-1.62-1.07.5.45.83.61a10,10,0,0,0,1,.41,16,16,0,0,0,3,1.08,37.13,37.13,0,0,0,6.14.42c1.51.08,3,.11,4.51.2a13.43,13.43,0,0,0,6-.62,8,8,0,0,0,2.89-1.68,6.46,6.46,0,0,0,1.8-3.76A6.61,6.61,0,0,0,893.17,62.07Z"/><path class="cls-43" d="M864.69,56.83a6.25,6.25,0,0,0,1.75-4.23,6.72,6.72,0,0,0-1.75-4.23,5.84,5.84,0,0,0-1.16-1l-.35-.25-.34-.24L863,47a10.09,10.09,0,0,0-4.75-1.43,24.91,24.91,0,0,0-6.88.69,15,15,0,0,0-2.91,1.33A4.77,4.77,0,0,0,846.24,49a3.72,3.72,0,0,0-.79,1.09,4,4,0,0,0-.16,4.66,3.71,3.71,0,0,0,.56.8A4.94,4.94,0,0,0,847.47,57c.21.11.45.2.67.3,2.69,2,7.05,2.13,8.78,2.25a10.15,10.15,0,0,0,1.56,0,12.39,12.39,0,0,0,2.09-.3,7.06,7.06,0,0,0,2.4-1.09l-.13.11c.14-.11.29-.21.44-.31l.1-.07A6.34,6.34,0,0,0,864.69,56.83Z"/><path class="cls-43" d="M1082.55,41.85c-3.54-2.15-8.09-2-12.12-1.88a30.08,30.08,0,0,0-6.14.52,14.07,14.07,0,0,0-3,1.18,14.64,14.64,0,0,0-2,1.31l-.27.22a1,1,0,0,0-.25.26c-.93,1.24-1,1.34-.3.31a4.77,4.77,0,0,0-1.39,4.25,5.09,5.09,0,0,0,2.41,3.69c-1.62-1.07.5.45.83.61a10,10,0,0,0,1,.41,16,16,0,0,0,3,1.08,37.07,37.07,0,0,0,6.14.43c1.51.07,3,.1,4.51.19a13.29,13.29,0,0,0,6-.62,8,8,0,0,0,2.89-1.68,6.46,6.46,0,0,0,1.8-3.76A6.58,6.58,0,0,0,1082.55,41.85Z"/><path class="cls-43" d="M1096.71,36.6a6.25,6.25,0,0,0,1.75-4.23,6.72,6.72,0,0,0-1.75-4.23,5.34,5.34,0,0,0-1.17-1c-.11-.09-.23-.16-.34-.24s-.24-.16-.35-.25l.15.12a10,10,0,0,0-4.75-1.44,16.39,16.39,0,0,0-3.21.08,15.82,15.82,0,0,0-3.67.61,14.8,14.8,0,0,0-2.92,1.33,6.89,6.89,0,0,0-1,.44,7.47,7.47,0,0,0-1.22.94,3.72,3.72,0,0,0-.79,1.09,4,4,0,0,0-.16,4.67,3.65,3.65,0,0,0,.56.79,4.9,4.9,0,0,0,1.61,1.46c.22.11.44.21.67.3,2.69,2,7,2.14,8.77,2.26a10.29,10.29,0,0,0,1.57,0,12.39,12.39,0,0,0,2.09-.3,7.32,7.32,0,0,0,2.4-1.08l-.14.1.45-.31.1-.07A6.16,6.16,0,0,0,1096.71,36.6Z"/><path class="cls-43" d="M988.7,93.3a17.41,17.41,0,0,0-6.16-1.7,44.21,44.21,0,0,0-6.51,0c-1.11,0-2.2.16-3.3.21a20.28,20.28,0,0,0-3,.44,3.9,3.9,0,0,0-.67.11l-1.66.71a14.69,14.69,0,0,0-1.18.9,5,5,0,0,0-1.57,2,5.27,5.27,0,0,0,.15,4.44c-.07-.13-.13-.26-.22-.45a4.64,4.64,0,0,0,1.1,2.09,6.88,6.88,0,0,0,2,1.84,11,11,0,0,0,2.76,1.38,19.81,19.81,0,0,0,4.84.78c2,.07,3.94,0,5.91.15a11.17,11.17,0,0,1,1.89.49,7.64,7.64,0,0,0,9-3C994.25,100.21,992.31,95,988.7,93.3Z"/><path class="cls-43" d="M1112.23,188.72a6.62,6.62,0,0,0-3.82-.85c-1.05.12-2.05.35-3.09.5l1.51-.2c-.81.1-1.62.24-2.42.37a11.59,11.59,0,0,0-1.94.26,12.92,12.92,0,0,0-2,.82,4.55,4.55,0,0,0-1.41.93,4.65,4.65,0,0,0,0,6.58h0a12,12,0,0,0,2.64,1.76,5,5,0,0,0,1.32.4c.69.09,1.38.2,2.08.26a7.86,7.86,0,0,0,1.68,0,20.39,20.39,0,0,0,3-.49,6.57,6.57,0,0,0,3.41-2.11,6.86,6.86,0,0,0,1.38-2.36,6.33,6.33,0,0,0,.2-1.44A5.22,5.22,0,0,0,1112.23,188.72Z"/><path class="cls-43" d="M846.54,784.6a6.11,6.11,0,0,0-3.07-4.7c-2-1-3.92-2-6.29-1.77-1.88.18-3.82.52-5.68.87a22.68,22.68,0,0,0-3.63,1,7.21,7.21,0,0,0-3.24,1.69l-.31.09a5,5,0,0,0-3.5,4.06,4.82,4.82,0,0,0,2.34,4.88l.93.42c.24.12,1,.67.25,0-.42-.34-.47-.38-.13-.12l1.29,1a9.49,9.49,0,0,0,2.2,1,20.64,20.64,0,0,0,5.45,1,22.26,22.26,0,0,0,4-.21,21.47,21.47,0,0,0,2.65-.41,8.62,8.62,0,0,0,3.62-2,14.24,14.24,0,0,0,1.32-1.37A6.45,6.45,0,0,0,846.54,784.6Z"/><path class="cls-43" d="M877.81,952.67c-.6-4.94-3.57-7.94-7.63-9.73-3.15-1.39-6.78-1.33-10.14-1.36-2.55,0-5.12.14-7.67.24a61.12,61.12,0,0,0-9.63,1.13,25.06,25.06,0,0,0-8.31,3.17c-3.77,2.43-5.22,9.32-1.49,12.69a17.45,17.45,0,0,0,5.81,3.72l-.88-.35a7.28,7.28,0,0,0,1.71.88c.8.37,1.63.83,2.47,1.12a47.09,47.09,0,0,0,10.32,2.06,76.31,76.31,0,0,0,8,.63c1.34,0,2.68,0,4-.1a22.37,22.37,0,0,0,8.3-2.45,10.57,10.57,0,0,0,3.82-4.19A12.53,12.53,0,0,0,877.81,952.67Z"/><path class="cls-43" d="M897.79,975.06h-.35a3.34,3.34,0,0,0-1.64-.6h-.16a5.05,5.05,0,0,0-1.87-1l-.61-.09H893l-1-.18a32,32,0,0,0-3.24-.47,13.91,13.91,0,0,0-3.64.26l1.83-.27a21.76,21.76,0,0,0-4,.7c-.34.12-.69.21-1,.33A6.81,6.81,0,0,0,880,974.8c-.52.23-1,.46-1.54.73a5.84,5.84,0,0,0-2.24,2.2,4.19,4.19,0,0,0-.55,3.83c.45,2.19,2.48,3.66,4.28,4.6a6.54,6.54,0,0,0,2.31,1.2,13.23,13.23,0,0,0,3.18.6,14.86,14.86,0,0,0,1.63-.1,16.16,16.16,0,0,0,2.39-.33,19.65,19.65,0,0,0,4.94-2.86,9.12,9.12,0,0,0,2.64-2.82,6.84,6.84,0,0,0,.36-1.08h0a10.87,10.87,0,0,0,.9-1.24c.1-.27.2-.53.31-.8a4.26,4.26,0,0,0,.06-.5l.33-.53a1.71,1.71,0,0,0-.49-2.37A1.62,1.62,0,0,0,897.79,975.06Z"/><path class="cls-43" d="M984,934.26a7,7,0,0,0-1.91-4.38l1,1.26c-2.55-4.61-8.63-3.6-13.07-3.78-1.52-.07-3-.11-4.54-.07a23.59,23.59,0,0,0-3.55.44c-.3.06-.6.11-.9.19a6.37,6.37,0,0,0-1.51.61c-1.33,1-1.5,1.16-.49.4a5.11,5.11,0,0,0-1.63,7,4.89,4.89,0,0,0,.63.81q-1.18-1.49.38.51l1.12.87a6.13,6.13,0,0,0,1,.48,18.15,18.15,0,0,0,3.27,1.23,43.37,43.37,0,0,0,6,.87c4.47.36,10.69,1.38,13.27-3.33l-.39.51A5.8,5.8,0,0,0,984,934.26Z"/><path class="cls-43" d="M989.79,917.12V917a1.59,1.59,0,0,0-1.35-1.55,3.46,3.46,0,0,0-1.38-.52h.15l-.36-.06a4.09,4.09,0,0,0-2.14,0h-.24a6,6,0,0,0-1.66.67,6.61,6.61,0,0,0-2.15,1.67l-.11.12-.17.14L980,918c-.29.24-.4.43-.35.57a.38.38,0,0,0-.1.53l0,0,.07.06a2.83,2.83,0,0,0,1.21,2.48,4,4,0,0,0,2.42,1.25,12.81,12.81,0,0,0,1.5.19,6.92,6.92,0,0,0,1.57-.23,4.52,4.52,0,0,0,1.4-.67,4.89,4.89,0,0,0,1.62-1.64c.14-.28.27-.56.39-.85a3.63,3.63,0,0,0,.34-1.45A3.33,3.33,0,0,0,989.79,917.12Z"/><path class="cls-43" d="M1088,984.56a8.08,8.08,0,0,0-2.19-5l1.11,1.45c-2.93-5.31-9.93-4.15-15-4.36-1.75-.07-3.47-.12-5.22-.07a25.69,25.69,0,0,0-4.09.51c-.35.07-.69.12-1,.21a8.26,8.26,0,0,0-1.74.71q-2.31,1.77-.57.45c-3.2,2.37-3.66,5.92-1.16,9-.9-1.15-.76-1,.44.58l1.29,1a7.86,7.86,0,0,0,1.13.55,21.15,21.15,0,0,0,3.77,1.42,50.21,50.21,0,0,0,7,1c5.13.41,12.29,1.58,15.26-3.83l-.45.58A6.59,6.59,0,0,0,1088,984.56Z"/><path class="cls-43" d="M1097.9,957.72v-.18a1.85,1.85,0,0,0-1.56-1.78,3.93,3.93,0,0,0-1.59-.59h.18l-.42-.06a4.67,4.67,0,0,0-2.46,0h-.27a7.4,7.4,0,0,0-1.92.76,7.69,7.69,0,0,0-2.46,1.93l-.14.13-.19.16c-.16.22-.33.43-.49.64-.33.28-.47.49-.4.65a.45.45,0,0,0-.13.61l.06.07.07.06a3.28,3.28,0,0,0,1.4,2.85,4.59,4.59,0,0,0,2.78,1.44,12.59,12.59,0,0,0,1.73.22,7.84,7.84,0,0,0,1.8-.27,5.06,5.06,0,0,0,1.61-.76,5.54,5.54,0,0,0,1.87-1.89,10.11,10.11,0,0,0,.45-1,4.34,4.34,0,0,0,.39-1.66A4,4,0,0,0,1097.9,957.72Z"/><path class="cls-43" d="M893.17,577.88c-3.54-2.14-8.09-2-12.12-1.87a30.08,30.08,0,0,0-6.14.52,14.59,14.59,0,0,0-3,1.17,15.71,15.71,0,0,0-2,1.32l-.27.21a1.66,1.66,0,0,0-.26.27c-.92,1.23-1,1.33-.29.3a4.83,4.83,0,0,0-1.39,4.25,5.06,5.06,0,0,0,2.41,3.7c-1.62-1.07.5.44.83.61a8.05,8.05,0,0,0,1,.41,16,16,0,0,0,3,1.08,37.13,37.13,0,0,0,6.14.42c1.51.07,3,.11,4.51.2a13.43,13.43,0,0,0,6-.62,8,8,0,0,0,2.89-1.68,6.46,6.46,0,0,0,1.8-3.76A6.61,6.61,0,0,0,893.17,577.88Z"/><path class="cls-43" d="M864.69,572.64a6.25,6.25,0,0,0,1.75-4.23,6.72,6.72,0,0,0-1.75-4.23,5.84,5.84,0,0,0-1.16-1l-.35-.24-.34-.24.14.11a10.09,10.09,0,0,0-4.75-1.43,14.88,14.88,0,0,0-3.2.08,15.82,15.82,0,0,0-3.68.61,15,15,0,0,0-2.91,1.33,7.35,7.35,0,0,0-1,.43,7,7,0,0,0-1.22.95,3.72,3.72,0,0,0-.79,1.09,4,4,0,0,0-.16,4.66,3.71,3.71,0,0,0,.56.8,4.87,4.87,0,0,0,1.61,1.45c.21.12.45.21.67.31,2.69,2,7,2.13,8.78,2.25a10.16,10.16,0,0,0,1.56,0,14.82,14.82,0,0,0,2.09-.3,7.14,7.14,0,0,0,2.46-1l-.13.11c.14-.11.29-.21.44-.31l.1-.07A6.66,6.66,0,0,0,864.69,572.64Z"/><path class="cls-43" d="M1082.55,557.66c-3.54-2.15-8.09-2-12.12-1.88a30.08,30.08,0,0,0-6.14.52,14.07,14.07,0,0,0-3,1.18,14.64,14.64,0,0,0-2,1.31l-.27.22a1,1,0,0,0-.25.26c-.93,1.23-1,1.34-.3.31a4.75,4.75,0,0,0-1.39,4.24,5.06,5.06,0,0,0,2.41,3.7c-1.62-1.07.5.45.83.61a10,10,0,0,0,1,.41,16,16,0,0,0,3,1.08,37.07,37.07,0,0,0,6.14.43c1.51.07,3,.1,4.51.19a13.29,13.29,0,0,0,6-.62,8,8,0,0,0,2.89-1.68,6.46,6.46,0,0,0,1.8-3.76A6.58,6.58,0,0,0,1082.55,557.66Z"/><path class="cls-43" d="M1096.71,552.41a6.25,6.25,0,0,0,1.75-4.23,6.72,6.72,0,0,0-1.75-4.23,5.34,5.34,0,0,0-1.17-1l-.34-.25c-.12-.08-.24-.15-.35-.24l.15.11a10.09,10.09,0,0,0-4.75-1.43,16.39,16.39,0,0,0-3.21.08,15.73,15.73,0,0,0-3.67.61,14.8,14.8,0,0,0-2.92,1.33,5.45,5.45,0,0,0-2.22,1.38,3.72,3.72,0,0,0-.79,1.09,4,4,0,0,0-.16,4.66,3.71,3.71,0,0,0,.56.8,4.9,4.9,0,0,0,1.61,1.46c.22.11.44.21.67.3,2.69,2,7,2.13,8.77,2.26a10.29,10.29,0,0,0,1.57,0,12.39,12.39,0,0,0,2.09-.3,7.32,7.32,0,0,0,2.4-1.08l-.14.1.45-.31.1-.07A6.16,6.16,0,0,0,1096.71,552.41Z"/><path class="cls-43" d="M988.7,609.11a17.2,17.2,0,0,0-6.16-1.7,44.21,44.21,0,0,0-6.51,0c-1.11,0-2.2.16-3.3.21a20.28,20.28,0,0,0-3,.44,3.9,3.9,0,0,0-.67.11l-1.66.71a14.69,14.69,0,0,0-1.18.9,5,5,0,0,0-1.57,2,5.27,5.27,0,0,0,.15,4.44c-.07-.13-.13-.26-.22-.45a4.64,4.64,0,0,0,1.1,2.09,6.88,6.88,0,0,0,2,1.84,11,11,0,0,0,2.76,1.38,19.81,19.81,0,0,0,4.84.78c2,.07,3.94,0,5.91.15a11.17,11.17,0,0,1,1.89.49,7.62,7.62,0,0,0,9-3C994.25,616,992.31,610.85,988.7,609.11Z"/><path class="cls-43" d="M1112.23,704.53a6.62,6.62,0,0,0-3.82-.85c-1.05.12-2.05.35-3.09.5l1.51-.2c-.81.1-1.62.24-2.42.37a11.59,11.59,0,0,0-1.94.26,12.92,12.92,0,0,0-2,.82,4.55,4.55,0,0,0-1.41.93,4.62,4.62,0,0,0-1.2,4.52,4.72,4.72,0,0,0,1.2,2.06,11.43,11.43,0,0,0,2.64,1.75,4.71,4.71,0,0,0,1.32.41c.69.09,1.38.2,2.08.26a7.86,7.86,0,0,0,1.68,0,20.39,20.39,0,0,0,3-.49,6.57,6.57,0,0,0,3.41-2.11,6.76,6.76,0,0,0,1.38-2.36,6.41,6.41,0,0,0,.2-1.45A5.2,5.2,0,0,0,1112.23,704.53Z"/></svg>