<svg id="Layer_1" data-name="Layer 1" xmlns="http://www.w3.org/2000/svg" viewBox="0 0 1920 1080"><defs><style>.cls-1{fill:#ecf3fb;}.cls-2{opacity:0.43;}.cls-3{fill:#fff;}.cls-4{opacity:0.9;}.cls-5{fill:#fbc98b;}.cls-6,.cls-7{fill:#381510;}.cls-6{opacity:0.5;isolation:isolate;}.cls-8{fill:#a94226;}.cls-9{fill:#f6e7e3;}.cls-10{fill:#fbebdb;}.cls-11{fill:#729ad1;}.cls-12{fill:#5e8bc8;}.cls-13{fill:#f3d2b8;}.cls-14{fill:#b6473d;}.cls-15{fill:#5d8bc8;}.cls-16{fill:#f89748;}.cls-17{fill:#fab179;}.cls-18{fill:#7a282b;}.cls-19{fill:#1f1d57;}.cls-20{fill:#f05c7e;}.cls-21{fill:#fac0bc;}.cls-22{fill:#f69794;}.cls-23{fill:#333;}.cls-24{fill:#3dbfb8;}.cls-25{fill:#f5929f;}.cls-26{fill:#d3725f;}.cls-27{fill:#fcfdfa;}.cls-28{fill:#daeef6;}.cls-29{fill:#fedda6;}</style></defs><title>Menara Tengah Baru</title><rect class="cls-1" y="-1080" width="1920" height="3240"/><g class="cls-2"><path class="cls-3" d="M1735.29,273c-14.54-9.34-35-7.48-47.72,4.35,6.21-36.48-13.82-77.82-48.13-88.73S1562.79,206,1563.65,243l-.12-.23c-10.42-19.72-28.68-37.08-50.43-37.85s-43.73,22.07-36.59,43.37c-13-10.71-30.48-17.31-46.56-12.77s-28.68,22.86-23.56,39.22c-9.65-9.39-28.78-1.54-29.54,12.12-11.16-5.52-42.41,2.78-38.35,20.78a11.25,11.25,0,0,0,4.58,6.47h410.46C1755.71,298.33,1748.44,281.39,1735.29,273Z"/></g><g class="cls-4"><path class="cls-3" d="M1923.5,306c-16.73-39-66.44-58.73-104.21-41.34-2.28-19.93-22.69-34.06-42.13-33.31s-36.94,13.37-49,29.14c2.4-19.81-7-40.65-23.19-51.55a51.77,51.77,0,0,0-55.09-1.09c-.41-29.3-26-54.41-54.18-58s-56.69,11.42-74.57,34.2-26.17,52.24-28.51,81.44c-7.91-13.94-30-8-39.37,4.92-5,6.78-14.24,22.89-17.31,36.25h486Z"/></g><g class="cls-2"><path class="cls-3" d="M902.2,829.61c-14.54-9.34-35-7.48-47.72,4.35,6.21-36.48-13.82-77.82-48.13-88.74s-76.65,17.37-75.79,54.39l-.12-.23C720,779.65,701.76,762.3,680,761.53s-43.73,22.07-36.58,43.37c-13-10.71-30.48-17.31-46.56-12.77S568.18,815,573.3,831.35c-9.65-9.39-28.78-1.54-29.54,12.12-11.16-5.53-42.41,2.78-38.35,20.77a11.28,11.28,0,0,0,4.58,6.48H920.45C922.62,855,915.34,838.05,902.2,829.61Z"/></g><g class="cls-4"><path class="cls-3" d="M1090.41,862.66c-16.74-39-66.44-58.73-104.21-41.34-2.28-19.93-22.7-34.06-42.13-33.31s-36.94,13.37-49,29.14c2.39-19.81-7-40.65-23.19-51.55a51.77,51.77,0,0,0-55.09-1.09c-.41-29.3-26-54.42-54.18-58S705.91,717.93,688,740.7s-26.17,52.24-28.52,81.44c-7.9-13.93-29.94-8-39.36,4.93-5,6.78-14.24,22.88-17.31,36.24h486C1089.38,863.06,1089.9,862.87,1090.41,862.66Z"/></g><rect class="cls-5" x="811.89" width="315.73" height="1080"/><rect class="cls-6" x="996.98" y="186.27" width="86.25" height="192.2"/><rect class="cls-7" x="999.09" y="189.8" width="82.04" height="185.15"/><path class="cls-7" d="M1018.6,187.92V242c-.06,4.11-.35,7.27-.69,7.27h-.1c-.32,0-.6-2.72-.68-6.39V187.65Z"/><path class="cls-7" d="M1017.46,242.62c-5.45,0-9.86,7.82-9.86,17.48h19.72C1027.32,250.44,1022.9,242.62,1017.46,242.62Z"/><path class="cls-7" d="M1018.24,242.83a2.57,2.57,0,0,0-.86-.16c-3.55,0-6.43,7.8-6.43,17.43h1.74C1012.69,251.27,1015.11,244,1018.24,242.83Z"/><path class="cls-7" d="M1019.53,308.4s-3-11.42,2.34-15c0,0,3.77-1.66,6.32-.11,0,0-5.51,8.54-4.5,10.16s5.74-10.25,5.74-10.25,7.47,2.42,9.47,5.46c0,0-7.71,5.44-6.49,6.6s9.4-3.88,9.4-3.88,6.42,5.28,4.84,12-4.29,7.72-5.28,7-6.3-7.5-6.68-6.16,2.41,7.73,4.9,9.2c0,0-6.32,6.45-9,2.33s-2.28-8.28-4-10.77-3.39-3.32-2.85-1.38,3.86,5.22,4.39,9.13,1.16,6.67-2,4.22-7.75-9.12-7.18-13.84Z"/><path class="cls-7" d="M1043.29,311.9s-18.15-10.29-23.76-3.5a19,19,0,0,1-5.17,6.79l-.78,1.75s4.18-4,5.37-3.82C1019,313.12,1019.1,301.33,1043.29,311.9Z"/><path class="cls-7" d="M1014.36,315.19s-4.81,2.93-6.62,11.53l.7.46s2.85-8.4,5.75-10.8S1014.36,315.19,1014.36,315.19Z"/><path class="cls-7" d="M1004.2,303.43l-1.26,3.8q-.09.25-.18.54h0a5.93,5.93,0,0,1-3.62,3.46V280.1c1.24.76,2.07,1.32,2.07,1.32s-.51,14.19,1.14,13.9,0-12.6,0-12.6c3.09,1.31,6,6.37,6,6.37C1011.94,297.35,1004.2,303.43,1004.2,303.43Z"/><path class="cls-7" d="M1006.27,314v2.17l-.08-.25h0l-.21-.63a1,1,0,0,0-.05-.16V315c-.13-.42-.3-.93-.49-1.48h0c-.78-2.23-1.89-5.12-2.63-5.73h0a2.45,2.45,0,0,0,.18-.54c.31-1.28.54-4.78-3.8-10.07v-1.88c2.5,2.54,4.42,5.31,5.06,8.15a31,31,0,0,0,2.06,10.56Z"/><path class="cls-7" d="M1006.27,314a27,27,0,0,1,1.43,15.8l-.86-.33s.84-9.55-.91-14.35S1006.27,314,1006.27,314Z"/><path class="cls-7" d="M1011.09,303.78s-8.54-8-4.56-18.9c0,0,3.19-6.68,6.61-8.4,0,0-1.83,16.23,0,16.61s1.25-18.32,1.25-18.32,9-7.26,12.52-6.69c0,0-5.58,15.85-3.75,15.47s8.08-16.42,8.08-16.42,9.23-2.86,10.71,6.3-.91,13.75-2.28,14.32-10.14.38-9.91,2.29,6.15,5,9.45,3.24c0,0-3.64,15.09-8.42,14.32s-6.27-5.72-9.23-6.11-5.12,1-3.64,2.29,6.49.44,8.88,3.85,4.33,5.51-.11,7-12.42.57-14-5.16Z"/><path class="cls-7" d="M1037.73,276.29s-23.91,13-26.64,27.49a48.19,48.19,0,0,1-2.28,13.94v2.86s2.5-9.73,3.87-11.07C1012.68,309.51,1007.33,296.91,1037.73,276.29Z"/><path class="cls-7" d="M1008.81,317.72a41.83,41.83,0,0,0-1.59,20.82l.95-.43s-.92-12.59,1-18.92S1008.81,317.72,1008.81,317.72Z"/><path class="cls-8" d="M1087.23,374.88h-1.84V182.68H994.93v192.2h-1.85c-4.61,0-8.35,6.28-8.35,14v.49h110.86v-.49C1095.59,381.16,1091.85,374.88,1087.23,374.88ZM999.14,189.73h82v34h-82Zm0,41.93h82V374.88h-82Z"/><rect class="cls-9" x="1000.62" y="192.77" width="79.32" height="6.69"/><rect class="cls-9" x="1000.62" y="203.28" width="79.32" height="6.69"/><rect class="cls-9" x="1000.62" y="213.78" width="79.32" height="6.69"/><rect class="cls-9" x="1000.62" y="223.62" width="79.32" height="6.69"/><rect class="cls-9" x="1000.62" y="234.68" width="79.32" height="6.69"/><rect class="cls-9" x="1004.31" y="189.63" width="0.77" height="57.16"/><rect class="cls-9" x="1075.95" y="189.63" width="0.77" height="57.16"/><rect class="cls-7" x="998.88" y="727.8" width="86.25" height="192.2"/><path class="cls-9" d="M1043.67,731.27s.21,56.79-34.16,104.8c0,0,7.16,62.61,6.14,80.35H999.14V731.27Z"/><path class="cls-9" d="M1045.92,731.27s6.28,46.5,35.26,63c0,0-.28,71.68-3.55,90.54s-4.09,31.65-4.09,31.65h7.64V731.27Z"/><path class="cls-8" d="M1087.23,916.42h-1.84V724.21H994.93V916.42h-1.85c-4.61,0-8.35,6.27-8.35,14v.49h110.86v-.49C1095.59,922.69,1091.85,916.42,1087.23,916.42ZM999.14,731.27h82v34h-82Zm0,41.92h82V916.42h-82Z"/><rect class="cls-6" x="859.67" y="727.8" width="86.25" height="192.2"/><rect class="cls-7" x="861.78" y="731.33" width="82.04" height="185.15"/><path class="cls-8" d="M949.92,916.42h-1.84V724.21H857.62V916.42h-1.85c-4.61,0-8.35,6.27-8.35,14v.49H958.28v-.49C958.28,922.69,954.54,916.42,949.92,916.42ZM861.83,731.27h82v34h-82Zm0,41.92h82V916.42h-82Z"/><rect class="cls-9" x="863.32" y="734.31" width="79.32" height="6.69"/><rect class="cls-9" x="863.32" y="744.81" width="79.32" height="6.69"/><rect class="cls-9" x="863.32" y="755.31" width="79.32" height="6.69"/><rect class="cls-9" x="863.32" y="765.15" width="79.32" height="6.69"/><rect class="cls-9" x="863.32" y="776.21" width="79.32" height="6.69"/><rect class="cls-9" x="867" y="731.16" width="0.77" height="57.16"/><rect class="cls-9" x="938.64" y="731.16" width="0.77" height="57.16"/><path class="cls-10" d="M910.14,904.15h9.94a3.42,3.42,0,0,1,3.42,3.42h0a3.5,3.5,0,0,1-3.5,3.5h-9.87v-6.91Z"/><path class="cls-11" d="M933.46,907v1a4.42,4.42,0,0,1-.24,1.53c-.31.9-.9,1.5-1.56,1.5H909.78c-.15,0-.26-.2-.26-.44v-.15c0-.25.11-.44.26-.44h13.34a3.8,3.8,0,0,0,.18-.47,4.29,4.29,0,0,0,.2-1.33v-1.32a4.14,4.14,0,0,0-.06-.7,3.52,3.52,0,0,0-.31-1H909.78c-.15,0-.26-.2-.26-.44v-.15c0-.25.11-.44.26-.44h22c.77,0,1.43.87,1.63,2.06A5.24,5.24,0,0,1,933.46,907Z"/><path class="cls-12" d="M933.4,906.21h-10a3.52,3.52,0,0,0-.31-1H909.78c-.15,0-.26-.2-.26-.44v-.15c0-.25.11-.44.26-.44h22C932.54,904.15,933.2,905,933.4,906.21Z"/><polygon class="cls-13" points="910.13 907.6 911.75 907.72 910.13 907.79 910.13 907.6"/><polygon class="cls-13" points="910.13 908.69 913.99 908.8 910.13 908.87 910.13 908.69"/><path class="cls-14" d="M912.63,916.42h12.43V911H912.53c-.86,0-1.55,1.16-1.55,2.6h0C911,915.17,911.72,916.42,912.63,916.42Z"/><path class="cls-10" d="M938.5,916.45h-13a2.72,2.72,0,0,1-2.72-2.72h0a2.66,2.66,0,0,1,2.66-2.66h13.1v5.38h0Z"/><path class="cls-14" d="M921.79,916.42H939c.13,0,.24-.18.24-.41h0c0-.22-.11-.4-.24-.4H921.8c-.13,0-.24.18-.24.4h0C921.55,916.24,921.66,916.42,921.79,916.42Z"/><path class="cls-14" d="M921.79,911.84H939c.13,0,.24-.18.24-.4h0c0-.22-.11-.4-.24-.4H921.8c-.13,0-.24.18-.24.4h0C921.55,911.66,921.66,911.84,921.79,911.84Z"/><polygon class="cls-13" points="938.5 913.73 936.59 913.82 938.5 913.87 938.5 913.73"/><polygon class="cls-13" points="938.5 912.49 933.95 912.58 938.5 912.63 938.5 912.49"/><path class="cls-11" d="M934,912.56a1.51,1.51,0,0,1,.26.61V915l.57-.57.58.57v-1.55a1.67,1.67,0,0,0-.15-.76.17.17,0,0,0-.15-.16Z"/><path class="cls-15" d="M934,912.56a1.51,1.51,0,0,1,.26.61h1.15s0-.54-.28-.63Z"/><path class="cls-9" d="M899.33,189.73s-.2,56.8,34.16,104.81c0,0-7.16,62.61-6.13,80.34h16.51V189.73Z"/><path class="cls-16" d="M1012.47,379.82H1003c-.61,0-1.07-.89-1-1.9l4.39-50.66c0-.44.26-.76.52-.76h1.47c.28,0,.52.34.56.81l4.49,50.58C1013.56,378.91,1013.08,379.82,1012.47,379.82Z"/><path class="cls-17" d="M1005.16,378.3l2.32-51.79c-.25.05-.46.38-.49.81l-4.38,50.52c-.09,1.05.4,2,1,2h1.88A2.68,2.68,0,0,1,1005.16,378.3Z"/><rect class="cls-18" x="851.01" y="137.76" width="103.93" height="37.26"/><rect class="cls-18" x="988.14" y="137.76" width="103.93" height="37.26"/><rect class="cls-18" x="851.01" y="672.62" width="103.93" height="37.26"/><rect class="cls-18" x="988.14" y="672.62" width="103.93" height="37.26"/><path class="cls-19" d="M859.59,300.21a8.53,8.53,0,0,1,2.49,2.62,3.22,3.22,0,0,1,.7-1.91,4.84,4.84,0,0,1-.17,3.29c.3.66.59,1.3.86,1.94a8.53,8.53,0,0,1,.51-3,4.12,4.12,0,0,1,0,4.18c.33.81.64,1.6.93,2.38a8.38,8.38,0,0,1,.73-3.27,4.44,4.44,0,0,1-.21,4.74c.3.85.56,1.68.81,2.5a11.14,11.14,0,0,1,1-4.18,5.67,5.67,0,0,1-.53,6c.24.9.45,1.77.64,2.63a14.08,14.08,0,0,1,1.63-5.32,7.25,7.25,0,0,1-1.17,7.7c.17,1,.3,2,.41,3a15.09,15.09,0,0,1,2.65-5.85,8,8,0,0,1-2.44,8.38,45.47,45.47,0,0,1,0,4.67c1.16-3.7,4.93-6.69,4.93-6.69a9.33,9.33,0,0,1-5.09,8.72c-.07.66-.16,1.28-.25,1.87-1.13,7.19-3.86,10.95-4,11.11l-.41-.29s2.78-3.83,3.89-10.9c.08-.51.15-1.06.22-1.63-1.36-.68-6.7-3.79-6.75-10.41,0,0,5.72,4.28,6.86,9.18a41.59,41.59,0,0,0,0-5.8,9.4,9.4,0,0,1-6.86-7.12s4.85,2.17,6.76,5.76c-.11-1.26-.28-2.59-.52-4a8.17,8.17,0,0,1-6-6.18s3.91,1.75,5.68,4.66c-.22-1.07-.48-2.19-.78-3.33a7.39,7.39,0,0,1-5.65-5.25s3.6,1.43,5.29,3.95a29.3,29.3,0,0,0-1-3,5.82,5.82,0,0,1-4.36-4.07,11.06,11.06,0,0,1,3.86,2.65c-.28-.75-.58-1.52-.9-2.3a4.55,4.55,0,0,1-3.23-3.28A9.13,9.13,0,0,1,862.7,306c-.28-.65-.59-1.32-.9-2A4.45,4.45,0,0,1,859.59,300.21Z"/><path class="cls-3" d="M886.84,323.05a6.83,6.83,0,0,0-2.56,1.3,2.57,2.57,0,0,0,0-1.6,3.79,3.79,0,0,0-.75,2.49c-.41.4-.79.81-1.17,1.21a6.19,6.19,0,0,0,.44-2.37,3.26,3.26,0,0,0-1.11,3.1c-.46.51-.9,1-1.33,1.52a6.81,6.81,0,0,0,.34-2.61,3.47,3.47,0,0,0-1.12,3.57c-.45.55-.87,1.1-1.27,1.64a8.74,8.74,0,0,0,.34-3.37,4.49,4.49,0,0,0-1.22,4.6c-.42.6-.81,1.19-1.17,1.78a10.91,10.91,0,0,0,.2-4.37,5.67,5.67,0,0,0-1.18,6c-.41.72-.77,1.41-1.11,2.1a11.59,11.59,0,0,0-.41-5,6.28,6.28,0,0,0-.42,6.84,35.77,35.77,0,0,0-1.26,3.46,12.85,12.85,0,0,0-1.88-6.23,7.25,7.25,0,0,0,1.45,7.78c-.12.5-.23,1-.31,1.44a20.72,20.72,0,0,0,0,9.27l.37-.11a20.76,20.76,0,0,1,0-9.08c.08-.41.17-.83.28-1.27,1.19-.16,6-1.09,7.81-6,0,0-5.4,1.7-7.57,5a34.42,34.42,0,0,1,1.52-4.31,7.58,7.58,0,0,0,7-3.51s-4.19.35-6.58,2.52c.42-.9.91-1.85,1.46-2.81a6.57,6.57,0,0,0,6.09-3,11.64,11.64,0,0,0-5.48,2c.45-.75.94-1.5,1.48-2.28a5.89,5.89,0,0,0,5.61-2.42,10.56,10.56,0,0,0-5,1.56c.48-.66,1-1.32,1.52-2a4.66,4.66,0,0,0,4.34-1.89,9,9,0,0,0-3.58,1c.41-.49.84-1,1.29-1.48a3.65,3.65,0,0,0,3.28-1.59,7.42,7.42,0,0,0-2.32.55c.39-.41.79-.83,1.21-1.24A3.62,3.62,0,0,0,886.84,323.05Z"/><rect class="cls-7" x="857.88" y="186.27" width="86.25" height="192.2"/><path class="cls-9" d="M897.08,189.73s-6.27,46.51-35.25,63c0,0,.27,71.68,3.55,90.54s4.09,31.64,4.09,31.64h-7.64V189.73Z"/><path class="cls-8" d="M847.42,388.89v.49H958.28v-.49c0-7.73-3.74-14-8.36-14h-1.84V182.68H857.62v192.2h-1.85C851.16,374.88,847.42,381.16,847.42,388.89Zm96.45-165.16h-82v-34h82Zm0,151.15h-82V231.66h82Z"/><path class="cls-20" d="M890.63,250.7c-16.48-.09-22.71,29-20.62,42.68,25.7,8.71,41.66,6.77,54.07-6.44C919.11,278.65,918,245.34,890.63,250.7Z"/><path class="cls-21" d="M901.69,281.31s.7,10.78,2.55,13.91c0,0-6.12,7.41-13.58,2.47,0,0-.59-9.16-1.82-11.25S901.69,281.31,901.69,281.31Z"/><path class="cls-22" d="M901.69,281.31s.16,2.38.51,5.23a12.6,12.6,0,0,1-8.86,4.45,12.21,12.21,0,0,1-3.41-.25,15.19,15.19,0,0,0-1.09-4.3C887.6,284.35,901.69,281.31,901.69,281.31Z"/><path class="cls-21" d="M883.78,343.1h0a6.13,6.13,0,0,0-4.48,5.28l-.2,2.05s2,4.53,2.45,4.68,6.21-.07,6.9-1.58.69-8.61.69-8.61Z"/><path class="cls-19" d="M903.14,287s15.15,8.92,25.17,23.32,14.22,45.21,12.58,56-22.4,9.47-22.4,9.47l-30.16-7-4.09-18.32-1.33-8.16,6.85.5s-10.08-19.47-.28-47.23C889.48,295.57,898.56,298.21,903.14,287Z"/><path class="cls-3" d="M909.7,294.77a27,27,0,0,0-3,6.45,38.2,38.2,0,0,0-1.61,6.92,49.33,49.33,0,0,0,.12,14.15,69.61,69.61,0,0,0,3.49,13.78c.39,1.12.85,2.22,1.26,3.34l1.41,3.29,1.5,3.24c.54,1.07,1.07,2.13,1.6,3.21-.59-1-1.18-2.08-1.76-3.13L911,342.84q-.76-1.63-1.5-3.27c-.45-1.11-.94-2.2-1.36-3.32s-.85-2.24-1.19-3.39l-.54-1.71-.48-1.73c-.33-1.15-.56-2.33-.84-3.49-.12-.59-.22-1.18-.33-1.77l-.16-.88-.13-.89a50.53,50.53,0,0,1-.51-7.17,41.89,41.89,0,0,1,.55-7.16,38.72,38.72,0,0,1,1.81-6.94,33.18,33.18,0,0,1,1.45-3.29A19.46,19.46,0,0,1,909.7,294.77Z"/><path class="cls-3" d="M882.91,342.3a69.79,69.79,0,0,1,10.7.89c1.77.27,3.53.61,5.28,1s3.48.89,5.19,1.4c3.42,1.05,6.79,2.22,10.25,3a51.5,51.5,0,0,0,5.24,1c1.77.24,3.53.44,5.32.62a52.49,52.49,0,0,1-10.68-1.13c-1.76-.37-3.49-.84-5.21-1.34l-5.12-1.57c-1.7-.52-3.41-1-5.14-1.42s-3.48-.78-5.23-1.11-3.51-.61-5.28-.84S884.69,342.43,882.91,342.3Z"/><path class="cls-3" d="M893.09,302.57a4.7,4.7,0,0,1-.36.87c-.14.27-.3.54-.47.8a8,8,0,0,1-.55.75,5.3,5.3,0,0,1-.66.68,4.7,4.7,0,0,1,.36-.87,9.15,9.15,0,0,1,1-1.55A4.72,4.72,0,0,1,893.09,302.57Z"/><path class="cls-3" d="M897.7,310.42a4.7,4.7,0,0,0,.36.87,7.9,7.9,0,0,0,.46.8,8.12,8.12,0,0,0,.56.75,4.25,4.25,0,0,0,.66.68,4.7,4.7,0,0,0-.36-.87c-.14-.27-.3-.54-.47-.8s-.36-.51-.55-.75A5.3,5.3,0,0,0,897.7,310.42Z"/><path class="cls-3" d="M921.31,306.5a4.13,4.13,0,0,0-.16.92,7.22,7.22,0,0,0,0,.93,7,7,0,0,0,.07.92,4.85,4.85,0,0,0,.19.92,4.13,4.13,0,0,0,.16-.92v-.93a3.54,3.54,0,0,0-.08-.92A4.83,4.83,0,0,0,921.31,306.5Z"/><path class="cls-3" d="M908.26,316.16a4.7,4.7,0,0,0,.36.87,9.15,9.15,0,0,0,1,1.55,5.3,5.3,0,0,0,.66.68,4.7,4.7,0,0,0-.36-.87,9.15,9.15,0,0,0-1-1.55A5.3,5.3,0,0,0,908.26,316.16Z"/><path class="cls-3" d="M927.48,321.9a4.7,4.7,0,0,0,.36.87c.15.27.3.54.47.8s.36.51.55.75a5.3,5.3,0,0,0,.66.68,4.7,4.7,0,0,0-.36-.87,7.9,7.9,0,0,0-.46-.8,8.12,8.12,0,0,0-.56-.75A4.25,4.25,0,0,0,927.48,321.9Z"/><path class="cls-3" d="M913.8,299.79a4.7,4.7,0,0,0,.36.87c.14.27.3.54.47.8s.36.51.55.75a4.72,4.72,0,0,0,.66.68,4.7,4.7,0,0,0-.36-.87,7.9,7.9,0,0,0-.46-.8,8.12,8.12,0,0,0-.56-.75A4.72,4.72,0,0,0,913.8,299.79Z"/><path class="cls-3" d="M920.33,322.75a4,4,0,0,0-.38.87,7,7,0,0,0-.26.89,9.1,9.1,0,0,0-.16.91,4.92,4.92,0,0,0,0,.94,5.1,5.1,0,0,0,.38-.86c.1-.3.19-.59.26-.89a7.06,7.06,0,0,0,.15-.92A4.92,4.92,0,0,0,920.33,322.75Z"/><path class="cls-3" d="M929.76,335a4.7,4.7,0,0,0,.36.87,8,8,0,0,0,.46.81c.17.25.36.5.56.74a4.25,4.25,0,0,0,.66.68,4.7,4.7,0,0,0-.36-.87c-.14-.27-.3-.54-.47-.8s-.36-.51-.55-.75A5.3,5.3,0,0,0,929.76,335Z"/><path class="cls-3" d="M923.46,340.93a4.48,4.48,0,0,0-.4.86,9,9,0,0,0-.28.88,7,7,0,0,0-.18.91,4.94,4.94,0,0,0-.05.94,5.18,5.18,0,0,0,.4-.86,9,9,0,0,0,.28-.88c.07-.3.13-.6.18-.91A4.94,4.94,0,0,0,923.46,340.93Z"/><path class="cls-3" d="M932.65,359a4.77,4.77,0,0,0,1-.08,7.15,7.15,0,0,0,.92-.19,9.24,9.24,0,0,0,.89-.29,5.22,5.22,0,0,0,.86-.41,5,5,0,0,0-1,.07,9.37,9.37,0,0,0-.92.19,9.24,9.24,0,0,0-.89.29A5,5,0,0,0,932.65,359Z"/><path class="cls-3" d="M909.12,357.06a4,4,0,0,0,.23.91,7.12,7.12,0,0,0,.36.86,9.27,9.27,0,0,0,.44.82,6,6,0,0,0,.57.76,5,5,0,0,0-.24-.92c-.11-.29-.23-.57-.36-.85a9.27,9.27,0,0,0-.44-.82A7.09,7.09,0,0,0,909.12,357.06Z"/><path class="cls-3" d="M897.32,365a5,5,0,0,0,.92-.25,8.31,8.31,0,0,0,.87-.35c.28-.14.56-.29.82-.45a4.74,4.74,0,0,0,.77-.56,5,5,0,0,0-.92.24,6.63,6.63,0,0,0-.87.36,6.53,6.53,0,0,0-.82.45A4.74,4.74,0,0,0,897.32,365Z"/><path class="cls-3" d="M924,357.74a5.13,5.13,0,0,0-.52.79c-.14.27-.28.55-.4.84a8.93,8.93,0,0,0-.3.87,4.85,4.85,0,0,0-.19.92,4.69,4.69,0,0,0,.52-.79,9,9,0,0,0,.4-.83,9.18,9.18,0,0,0,.31-.88A4.83,4.83,0,0,0,924,357.74Z"/><path class="cls-3" d="M895.09,347.82a4.7,4.7,0,0,0,.36.87,9.32,9.32,0,0,0,1,1.55,5.3,5.3,0,0,0,.66.68,4.7,4.7,0,0,0-.36-.87,9.15,9.15,0,0,0-1-1.55A5.15,5.15,0,0,0,895.09,347.82Z"/><path class="cls-3" d="M915.55,332.8a4.92,4.92,0,0,0,0,.94,7,7,0,0,0,.09.92,4.1,4.1,0,0,0,.18.9,5.55,5.55,0,0,0,.32.89,4.92,4.92,0,0,0,0-.94,7,7,0,0,0-.09-.92,3.69,3.69,0,0,0-.19-.91A4.6,4.6,0,0,0,915.55,332.8Z"/><path class="cls-3" d="M893.4,316.76a4.79,4.79,0,0,1-.36.88c-.15.27-.3.54-.47.8s-.36.51-.55.75a5.3,5.3,0,0,1-.66.68,4.7,4.7,0,0,1,.36-.87,7.53,7.53,0,0,1,1-1.56A5.46,5.46,0,0,1,893.4,316.76Z"/><path class="cls-3" d="M897.39,325.32a4.7,4.7,0,0,0,.36.87,8.13,8.13,0,0,0,.47.81c.17.26.35.5.55.75a5.3,5.3,0,0,0,.66.68,4.79,4.79,0,0,0-.36-.88c-.14-.27-.3-.54-.47-.8a8,8,0,0,0-.55-.75A5.3,5.3,0,0,0,897.39,325.32Z"/><path class="cls-3" d="M893.91,333.28a4.7,4.7,0,0,1-.36.87c-.14.27-.3.54-.47.8a8,8,0,0,1-.55.75,5.3,5.3,0,0,1-.66.68,4.7,4.7,0,0,1,.36-.87,7.9,7.9,0,0,1,.46-.8,8.12,8.12,0,0,1,.56-.75A4.72,4.72,0,0,1,893.91,333.28Z"/><path class="cls-3" d="M903.32,339.22a4.7,4.7,0,0,1-.36.87c-.15.28-.3.54-.47.8s-.36.51-.55.75a5.3,5.3,0,0,1-.66.68,4.7,4.7,0,0,1,.36-.87,7.9,7.9,0,0,1,.46-.8,8.12,8.12,0,0,1,.56-.75A4.72,4.72,0,0,1,903.32,339.22Z"/><path class="cls-21" d="M879.91,282a13.12,13.12,0,0,1-.77-2.37,25.16,25.16,0,0,1-.63-6.47v-1.27a13.58,13.58,0,0,1,.75-5.25,14,14,0,0,1,27,6.36,3,3,0,0,1,2.73.13c1.56.93,1.87,3.23.71,5.15s-3.37,2.7-4.93,1.77a2.8,2.8,0,0,1-.57-.46c-4.38,9.18-8.27,10.09-14.35,10.13-3.29,0-6-2.15-8-4.53a4.93,4.93,0,0,1-.42-.49A12.28,12.28,0,0,1,879.91,282Z"/><path class="cls-22" d="M887.68,271.38a9.16,9.16,0,0,1,0,2.34,5.79,5.79,0,0,1-.24,1.17,3.11,3.11,0,0,1-.58,1.11l-.24.22c-.06.06-.14.1-.18.17a.85.85,0,0,0-.14.19v.22a1.16,1.16,0,0,0,.18.94,2.43,2.43,0,0,0,.8.73,4.35,4.35,0,0,0,1.07.45,3.35,3.35,0,0,1-1.17-.24,2.34,2.34,0,0,1-1-.73,1.51,1.51,0,0,1-.32-1.26,1,1,0,0,1,.12-.32,1.15,1.15,0,0,1,.2-.29,1.75,1.75,0,0,1,.24-.23l.09-.09.09-.08a2.54,2.54,0,0,0,.5-.93,7.05,7.05,0,0,0,.3-1.09C887.46,272.91,887.58,272.15,887.68,271.38Z"/><path class="cls-23" d="M893.49,272.73a1.19,1.19,0,0,0-1,1.32,1.17,1.17,0,0,0,.32.68,1.21,1.21,0,0,0,1.77-1.65l-.06-.06A1.19,1.19,0,0,0,893.49,272.73Z"/><path class="cls-23" d="M882,272.72a1.22,1.22,0,0,0,.78,1.54,1.22,1.22,0,0,0,1.53-.74,1.22,1.22,0,0,0-2.31-.8Z"/><path class="cls-20" d="M891.27,269.34a3.84,3.84,0,0,1,1.77-.73,4.31,4.31,0,0,1,3.68,1.15l.17.17c.06.06.11.13.16.19l.29.39a6.71,6.71,0,0,1,.42.85c-.25-.2-.46-.43-.7-.62l-.35-.28-.17-.14-.19-.13a5.59,5.59,0,0,0-1.55-.76,5.81,5.81,0,0,0-1.71-.26A10.1,10.1,0,0,0,891.27,269.34Z"/><path class="cls-20" d="M887.45,268.94a9,9,0,0,0-1.76-.5,6.26,6.26,0,0,0-1.73-.06,5.72,5.72,0,0,0-1.66.47l-.2.09a1.18,1.18,0,0,0-.19.11l-.4.21c-.27.15-.51.34-.8.49a6,6,0,0,1,.57-.76l.35-.33.19-.16.2-.14a4.13,4.13,0,0,1,1.85-.69,4.39,4.39,0,0,1,2,.22A4.1,4.1,0,0,1,887.45,268.94Z"/><path class="cls-22" d="M884.07,281.36c.22-.08,2.49-.91,3.75-.17,1.28-.71,3.74.19,4,.28-.26.09-2.79.39-2.91.45l-1-.05H887C886.84,281.84,884.32,281.46,884.07,281.36Z"/><path class="cls-22" d="M886.16,282.74l2.67.12h0c.69-.27,2.56-.87,2.73-.91a3.65,3.65,0,0,1-3.67,2.22,3.79,3.79,0,0,1-3.62-2.4Z"/><path class="cls-3" d="M884.07,281.36c.34,1.12,1.93,2,3.85,2s3.53-.78,3.88-1.88Z"/><path class="cls-20" d="M881.94,256.34s6,8.19,24.35,16.65L908,269.5v-6.95l-8-4.45-9.24-5.1Z"/><path class="cls-20" d="M887.88,258.23s-7,11.54-12.2,14.66l1-8.41a10.81,10.81,0,0,1,1.49-2.65c.52-.35,7.48-5.79,7.48-5.79Z"/><path class="cls-3" d="M961.29,305.32a11.27,11.27,0,0,0-3.58,2.4,3.1,3.1,0,0,0-.34-2.15s-1.19,2-.62,3.55c-.52.65-1,1.29-1.5,1.93a8,8,0,0,0,.16-3.31,4.22,4.22,0,0,0-1,4.46c-.59.81-1.16,1.61-1.69,2.4a8.5,8.5,0,0,0,0-3.62,4.56,4.56,0,0,0-1,5.11c-.55.86-1.07,1.7-1.56,2.54A10.79,10.79,0,0,0,950,314a5.69,5.69,0,0,0-.9,6.51c-.51.92-1,1.82-1.4,2.7a13.12,13.12,0,0,0-.59-5.93,7.14,7.14,0,0,0-.55,8.4c-.46,1.07-.87,2.11-1.23,3.11a14.3,14.3,0,0,0-1.64-6.66,7.81,7.81,0,0,0,.76,9.34,44.83,44.83,0,0,0-1.18,5c-.44-4.14-4.1-7.93-4.1-7.93a9.08,9.08,0,0,0,3.77,10.13c-.08.71-.14,1.39-.18,2-.48,7.86,1.77,12.32,1.87,12.5l.54-.24c0-.05-2.29-4.53-1.82-12.26a16.32,16.32,0,0,1,.16-1.78c1.76-.51,8.8-3,10.52-10.06,0,0-7.77,3.68-10.35,8.73a43.94,43.94,0,0,1,1.41-6.21,12.27,12.27,0,0,0,9.83-6.52s-6.23,1.55-9.37,5.09c.45-1.34,1-2.73,1.61-4.18a10.63,10.63,0,0,0,8.54-5.65s-5,1.25-7.83,4.08c.52-1.11,1.11-2.26,1.75-3.44a9.73,9.73,0,0,0,7.94-4.7s-4.58,1-7.2,3.37c.58-1,1.21-2,1.89-3.07a7.69,7.69,0,0,0,6.13-3.65,14.87,14.87,0,0,0-5.19,2.22c.52-.77,1.07-1.54,1.64-2.32a6,6,0,0,0,4.61-3,12.36,12.36,0,0,0-3.38,1.34c.5-.65,1-1.32,1.56-2A5.55,5.55,0,0,0,961.29,305.32Z"/><path class="cls-19" d="M943.94,308.87a5.21,5.21,0,0,0-1.7,1.5,2.08,2.08,0,0,0-.33-1.23,3.1,3.1,0,0,0-.08,2.06c-.23.39-.44.78-.65,1.16a5.34,5.34,0,0,0-.14-1.91,2.6,2.6,0,0,0-.23,2.61c-.25.48-.49,1-.71,1.43a5.26,5.26,0,0,0-.27-2.08,2.81,2.81,0,0,0-.14,3c-.23.51-.45,1-.65,1.51a6.87,6.87,0,0,0-.41-2.66,3.58,3.58,0,0,0,0,3.78c-.2.54-.38,1.08-.54,1.6a8.74,8.74,0,0,0-.73-3.41,4.57,4.57,0,0,0,.3,4.87q-.24.94-.42,1.83a9.35,9.35,0,0,0-1.33-3.79A5,5,0,0,0,937,324.5a28.13,28.13,0,0,0-.27,2.91A10.28,10.28,0,0,0,934,323a5.84,5.84,0,0,0,2.68,5.72,9,9,0,0,0,.05,1.18,16.51,16.51,0,0,0,1.85,7.15l.26-.16a16.89,16.89,0,0,1-1.8-7v-1a7.55,7.55,0,0,0,4.8-6.13S938,325,937,328a27.47,27.47,0,0,1,.3-3.62,5.91,5.91,0,0,0,4.68-4.07s-3.14,1.09-4.54,3.23c.14-.78.32-1.6.55-2.46a5.12,5.12,0,0,0,4.07-3.52,9.07,9.07,0,0,0-3.81,2.59c.2-.66.42-1.34.68-2a4.63,4.63,0,0,0,3.82-3,8.41,8.41,0,0,0-3.53,2.17c.24-.59.49-1.21.77-1.83a3.63,3.63,0,0,0,3-2.3,7,7,0,0,0-2.55,1.45c.21-.46.44-.92.69-1.39a2.86,2.86,0,0,0,2.2-1.87,6,6,0,0,0-1.68.88l.68-1.19A2.84,2.84,0,0,0,943.94,308.87Z"/><path class="cls-24" d="M941.19,367.5s11.48-20.75-6.24-36C935,331.52,926.18,353.78,941.19,367.5Z"/><path class="cls-24" d="M941.82,366.23s21.86-18.15,14.43-42.82C956.25,323.41,936,344.42,941.82,366.23Z"/><path class="cls-24" d="M941.6,366.29s20.65.07,27.17-17.88C968.77,348.41,947.79,350.78,941.6,366.29Z"/><path class="cls-24" d="M945.3,365.25s14.69,5.84,25.05-4.12C970.35,361.13,954.65,356.8,945.3,365.25Z"/><path class="cls-24" d="M940.43,367.05s-1-16.71-18.35-17.61C922.08,349.44,925.44,365.83,940.43,367.05Z"/><path class="cls-19" d="M937.89,366c-1.26-1.41-2.55-2.81-3.83-4.2s-2.6-2.76-3.9-4.15-2.61-2.74-3.94-4.1l-2-2c-.67-.67-1.33-1.35-2-2,.63.71,1.27,1.41,1.9,2.11l1.93,2.09q1.94,2.08,3.89,4.15c1.32,1.36,2.62,2.74,3.94,4.1S936.54,364.65,937.89,366Z"/><path class="cls-19" d="M956.25,323.41c-.48,1.86-1,3.71-1.5,5.56s-1,3.7-1.57,5.54c-1.08,3.69-2.2,7.37-3.42,11-.6,1.82-1.23,3.64-1.89,5.44s-1.37,3.59-2.1,5.37-1.54,3.52-2.43,5.23a23.94,23.94,0,0,1-3.15,4.82,24.28,24.28,0,0,0,3.28-4.76c.93-1.69,1.75-3.43,2.52-5.2,1.53-3.54,2.83-7.16,4.06-10.81s2.32-7.33,3.35-11c.52-1.86,1-3.71,1.49-5.57S955.82,325.28,956.25,323.41Z"/><path class="cls-19" d="M968.77,348.41l-3,2.48-3,2.45c-2,1.62-4,3.23-6.14,4.76s-4.19,3.06-6.36,4.47c-1.09.7-2.2,1.38-3.34,2a23,23,0,0,1-3.54,1.61,29.89,29.89,0,0,0,7-3.42c1.11-.68,2.19-1.4,3.26-2.14s2.12-1.5,3.16-2.28c2.08-1.56,4.12-3.16,6.11-4.82S966.87,350.17,968.77,348.41Z"/><path class="cls-19" d="M970.35,361.13l-2.37.74-2.38.72c-1.59.47-3.18,1-4.78,1.36s-3.2.85-4.82,1.21c-.4.1-.81.17-1.21.26s-.81.17-1.22.23-.81.16-1.23.22l-1.23.18a39.09,39.09,0,0,0,4.94-.67c1.63-.31,3.24-.72,4.85-1.14s3.19-.91,4.77-1.43S968.81,361.75,970.35,361.13Z"/><path class="cls-19" d="M935,331.52c.26,2.83.58,5.65.9,8.47s.69,5.63,1,8.44.78,5.63,1.24,8.43c.23,1.4.47,2.8.73,4.2.14.69.28,1.39.44,2.08a11.82,11.82,0,0,0,.61,2,7.17,7.17,0,0,1-.3-1c-.09-.34-.16-.69-.23-1-.14-.69-.26-1.39-.37-2.09-.24-1.4-.45-2.8-.65-4.2-.41-2.81-.79-5.62-1.16-8.43L936.08,340Z"/><path class="cls-24" d="M862.57,366.16s-11.49-20.75,6.24-36C868.81,330.19,877.58,352.45,862.57,366.16Z"/><path class="cls-24" d="M861.94,364.9s-21.86-18.15-14.43-42.83C847.51,322.07,867.78,343.08,861.94,364.9Z"/><path class="cls-24" d="M862.16,365s-20.65,0-27.16-17.93C835,347.07,856,349.44,862.16,365Z"/><path class="cls-24" d="M863.61,367s-1-16.71,16.08-19.64C879.69,347.38,878.34,364,863.61,367Z"/><path class="cls-19" d="M863.93,364q1.89-2.12,3.83-4.2c1.29-1.39,2.59-2.76,3.89-4.15s2.62-2.74,3.94-4.1l2-2c.67-.67,1.34-1.35,2-2-.63.71-1.27,1.41-1.91,2.11l-1.93,2.09c-1.28,1.39-2.59,2.77-3.89,4.15s-2.62,2.74-3.94,4.1S865.28,362.69,863.93,364Z"/><path class="cls-24" d="M858.46,363.92s-14.69,5.84-25.05-4.12C833.41,359.8,849.11,355.47,858.46,363.92Z"/><path class="cls-19" d="M847.51,322.07q.72,2.79,1.5,5.56t1.57,5.55c1.08,3.69,2.2,7.36,3.42,11,.6,1.83,1.23,3.64,1.89,5.45s1.36,3.59,2.1,5.36,1.54,3.53,2.43,5.23a24,24,0,0,0,3.15,4.83,24.28,24.28,0,0,1-3.28-4.76c-.93-1.69-1.75-3.44-2.52-5.21-1.53-3.53-2.83-7.16-4.06-10.8s-2.32-7.34-3.35-11c-.52-1.85-1-3.71-1.49-5.57S847.94,323.94,847.51,322.07Z"/><path class="cls-19" d="M835,347.07q1.5,1.26,3,2.49l3,2.45c2,1.61,4.06,3.22,6.15,4.76s4.18,3.06,6.36,4.46c1.09.7,2.2,1.39,3.34,2a23.08,23.08,0,0,0,3.54,1.62,30.9,30.9,0,0,1-7-3.42c-1.11-.68-2.19-1.41-3.26-2.15S848,357.78,847,357c-2.07-1.56-4.11-3.17-6.1-4.83S836.89,348.83,835,347.07Z"/><path class="cls-19" d="M833.41,359.8l2.37.73,2.38.73c1.59.46,3.18.94,4.78,1.36s3.2.84,4.82,1.2c.4.1.81.18,1.21.26s.81.17,1.22.24.81.16,1.22.21l1.23.18a37.18,37.18,0,0,1-4.93-.66c-1.64-.31-3.24-.73-4.85-1.14s-3.19-.92-4.77-1.44S835,360.41,833.41,359.8Z"/><path class="cls-19" d="M868.81,330.19c-.27,2.82-.58,5.64-.9,8.46s-.69,5.63-1.06,8.45-.78,5.62-1.23,8.42c-.23,1.41-.47,2.81-.73,4.2-.14.7-.28,1.39-.44,2.09a12.81,12.81,0,0,1-.61,2,8.83,8.83,0,0,0,.3-1c.09-.35.16-.69.23-1,.14-.7.25-1.4.37-2.09.23-1.4.45-2.81.65-4.21q.6-4.22,1.16-8.43l1.12-8.44Z"/><path class="cls-25" d="M925.71,358.5a9,9,0,0,0-8.52-5.44,9.46,9.46,0,0,0-6.65,2.65,9.86,9.86,0,0,0-7.34.12,11.54,11.54,0,0,0-10.53-6.28,12,12,0,0,0-8.58,3.51,9.61,9.61,0,0,0-17,5.93v.52c-4.08.8-7.13,4.07-7.13,8,0,4.52,4,8.19,9,8.19,4.7,0,8.56-3.24,9-7.38a9.66,9.66,0,0,0,5.25-2.52,11.79,11.79,0,0,0,9.41,4.47,12.25,12.25,0,0,0,7-2.2,9.33,9.33,0,0,0,7.3,3.36,9.49,9.49,0,0,0,6.66-2.64,9.88,9.88,0,0,0,3.32.63,9,9,0,0,0,8.52,5.44c5,0,9-3.67,9-8.19S930.62,358.59,925.71,358.5Z"/><path class="cls-26" d="M930,363.62H842.56L847,378.74H960.55L965,363.62Z"/><path class="cls-27" d="M871.61,356.24a.45.45,0,1,0-.45-.45A.45.45,0,0,0,871.61,356.24Z"/><path class="cls-27" d="M881.2,360.51a.45.45,0,1,0-.45-.45A.45.45,0,0,0,881.2,360.51Z"/><path class="cls-27" d="M891.42,355.08a.45.45,0,1,0-.45-.45A.45.45,0,0,0,891.42,355.08Z"/><polygon class="cls-28" points="962.86 370.93 964.97 363.62 930.04 363.62 912.61 363.62 894.93 363.62 885.41 363.62 842.56 363.62 844.68 370.93 962.86 370.93"/><path class="cls-27" d="M900.83,359.27a.46.46,0,1,0-.39-.39A.47.47,0,0,0,900.83,359.27Z"/><path class="cls-27" d="M905.91,361.54a.46.46,0,1,0-.39-.39A.47.47,0,0,0,905.91,361.54Z"/><path class="cls-27" d="M918.6,360.13a.45.45,0,1,0-.45-.45A.45.45,0,0,0,918.6,360.13Z"/><path class="cls-27" d="M915.48,362.81a.46.46,0,1,0-.39-.39A.47.47,0,0,0,915.48,362.81Z"/><path class="cls-27" d="M930.26,363.07a.45.45,0,1,0-.45-.45A.45.45,0,0,0,930.26,363.07Z"/><path class="cls-27" d="M920,356.51a.46.46,0,1,0-.39-.39A.47.47,0,0,0,920,356.51Z"/><path class="cls-27" d="M913.22,359.8a.45.45,0,1,0-.45-.45A.45.45,0,0,0,913.22,359.8Z"/><path class="cls-27" d="M908.42,356.68a.45.45,0,1,0-.45-.45A.45.45,0,0,0,908.42,356.68Z"/><path class="cls-27" d="M889.25,361.31a.45.45,0,1,0-.45-.45A.45.45,0,0,0,889.25,361.31Z"/><path class="cls-27" d="M897,354.9a.45.45,0,1,0-.45-.45A.45.45,0,0,0,897,354.9Z"/><path class="cls-27" d="M878.31,353.21a.45.45,0,1,0-.45-.45A.45.45,0,0,0,878.31,353.21Z"/><path class="cls-27" d="M873.15,361.31a.45.45,0,1,0-.45-.45A.45.45,0,0,0,873.15,361.31Z"/><path class="cls-27" d="M864,363.18a.45.45,0,1,0-.45-.45A.45.45,0,0,0,864,363.18Z"/><path class="cls-27" d="M898.29,362a.46.46,0,1,0-.39-.39A.47.47,0,0,0,898.29,362Z"/><path class="cls-27" d="M884.91,357a.45.45,0,1,0-.45-.45A.45.45,0,0,0,884.91,357Z"/><path class="cls-19" d="M841.93,363.58H965.24a1.34,1.34,0,0,1,1.34,1.34h0a1.34,1.34,0,0,1-1.33,1.33H841.93a1.34,1.34,0,0,1-1.34-1.34h0A1.34,1.34,0,0,1,841.93,363.58Z"/><path class="cls-18" d="M1127.16,20.7H813.69c-3.3,0-6-9.27-6-20.7h0c0-11.43,2.66-20.7,6-20.7h313.47c3.3,0,6,9.27,6,20.7h0C1133.13,11.43,1130.46,20.7,1127.16,20.7Z"/><path class="cls-18" d="M1127.16,560.7H813.69c-3.3,0-6-9.27-6-20.7h0c0-11.43,2.66-20.7,6-20.7h313.47c3.3,0,6,9.27,6,20.7h0C1133.13,551.43,1130.46,560.7,1127.16,560.7Z"/><path class="cls-18" d="M1127.16,1100.7H813.69c-3.3,0-6-9.27-6-20.7h0c0-11.43,2.66-20.7,6-20.7h313.47c3.3,0,6,9.27,6,20.7h0C1133.13,1091.43,1130.46,1100.7,1127.16,1100.7Z"/><path class="cls-29" d="M846.54,287.83a6.1,6.1,0,0,0-3.07-4.69c-2-1-3.92-2-6.29-1.78-1.88.18-3.82.53-5.68.87a22.68,22.68,0,0,0-3.63,1,14.82,14.82,0,0,0-2.11.86,11.3,11.3,0,0,0-1.13.83l-.31.09a5,5,0,0,0-3.5,4.07,4.79,4.79,0,0,0,2.34,4.87l.93.43c.24.11,1,.67.25,0-.42-.33-.47-.37-.13-.11l1.29,1a9.49,9.49,0,0,0,2.2,1,20.64,20.64,0,0,0,5.45,1,23.23,23.23,0,0,0,4-.22,19.71,19.71,0,0,0,2.65-.4,8.45,8.45,0,0,0,3.62-2,13.16,13.16,0,0,0,1.32-1.37A6.43,6.43,0,0,0,846.54,287.83Z"/><path class="cls-29" d="M877.81,455.9c-.6-4.94-3.57-7.93-7.63-9.72-3.15-1.39-6.78-1.34-10.14-1.36-2.55,0-5.12.13-7.67.23a62.47,62.47,0,0,0-9.63,1.13,25.3,25.3,0,0,0-8.31,3.18c-3.77,2.42-5.22,9.32-1.49,12.69a17.45,17.45,0,0,0,5.81,3.72l-.88-.36a7.32,7.32,0,0,0,1.71.89c.8.37,1.63.82,2.47,1.12a47.66,47.66,0,0,0,10.32,2.05,73.72,73.72,0,0,0,8,.64c1.34,0,2.68,0,4-.11a22.17,22.17,0,0,0,8.3-2.44,10.66,10.66,0,0,0,3.82-4.2A12.53,12.53,0,0,0,877.81,455.9Z"/><path class="cls-29" d="M897.79,478.29l-.35-.05a3.34,3.34,0,0,0-1.64-.6h-.16a5.05,5.05,0,0,0-1.87-1l-.61-.09H893l-1-.18a29.42,29.42,0,0,0-3.24-.48,14.83,14.83,0,0,0-3.64.27l1.83-.27a20.2,20.2,0,0,0-4,.7l-1,.32A6.35,6.35,0,0,0,880,478c-.52.23-1,.45-1.54.73a5.71,5.71,0,0,0-2.24,2.2,4.17,4.17,0,0,0-.55,3.82c.45,2.19,2.48,3.67,4.28,4.6a6.73,6.73,0,0,0,2.31,1.21,13.23,13.23,0,0,0,3.18.6,28.29,28.29,0,0,0,4-.44,11.82,11.82,0,0,0,2.13-1,13.22,13.22,0,0,0,2.81-1.87A8.75,8.75,0,0,0,897,485a6.84,6.84,0,0,0,.36-1.08h0a10.17,10.17,0,0,0,.9-1.25c.1-.26.2-.53.31-.79a4.43,4.43,0,0,0,.06-.51l.33-.52a1.72,1.72,0,0,0-.6-2.36A1.59,1.59,0,0,0,897.79,478.29Z"/><path class="cls-29" d="M984,437.5a7,7,0,0,0-1.91-4.38l1,1.26c-2.55-4.62-8.63-3.61-13.07-3.79-1.52-.06-3-.11-4.54-.06a22.37,22.37,0,0,0-3.55.44l-.9.18a7.38,7.38,0,0,0-1.51.62c-1.34,1-1.5,1.16-.49.39a5.12,5.12,0,0,0-1.63,7,5.49,5.49,0,0,0,.63.81q-1.18-1.5.38.51l1.12.87a6.13,6.13,0,0,0,1,.48,18.15,18.15,0,0,0,3.27,1.23,43.37,43.37,0,0,0,6,.87c4.47.36,10.69,1.37,13.27-3.33l-.39.5A5.75,5.75,0,0,0,984,437.5Z"/><path class="cls-29" d="M989.79,420.36v-.16a1.59,1.59,0,0,0-1.35-1.55,3.45,3.45,0,0,0-1.38-.51h.15l-.36-.06a4.09,4.09,0,0,0-2.14,0h-.24a6.26,6.26,0,0,0-1.66.66,6.89,6.89,0,0,0-2.15,1.68l-.11.11-.17.14-.43.56c-.29.24-.4.42-.35.56a.39.39,0,0,0-.1.54l0,.05.07.06A2.86,2.86,0,0,0,980.8,425a4,4,0,0,0,2.42,1.24,10.79,10.79,0,0,0,1.5.19,6.41,6.41,0,0,0,1.57-.23,4.61,4.61,0,0,0,1.4-.66,4.83,4.83,0,0,0,1.62-1.65q.21-.4.39-.84a3.63,3.63,0,0,0,.34-1.45A3.47,3.47,0,0,0,989.79,420.36Z"/><path class="cls-29" d="M1088,487.8a8.08,8.08,0,0,0-2.19-5l1.11,1.44c-2.93-5.3-9.93-4.14-15-4.35-1.75-.07-3.47-.12-5.22-.07a25.69,25.69,0,0,0-4.09.51,9.26,9.26,0,0,0-1,.21,7.73,7.73,0,0,0-1.74.7c-1.54,1.18-1.73,1.34-.57.46-3.2,2.36-3.66,5.92-1.16,9-.9-1.14-.76-.95.44.59l1.29,1a9.07,9.07,0,0,0,1.13.55,21.12,21.12,0,0,0,3.77,1.41,48.76,48.76,0,0,0,7,1c5.13.42,12.29,1.59,15.26-3.83l-.45.58A6.53,6.53,0,0,0,1088,487.8Z"/><path class="cls-29" d="M1097.9,461v-.18a1.82,1.82,0,0,0-1.56-1.78,3.93,3.93,0,0,0-1.59-.59h.18l-.42-.07a4.67,4.67,0,0,0-2.46,0l-.27.06a6.64,6.64,0,0,0-1.92.76,7.81,7.81,0,0,0-2.46,1.92l-.14.14-.19.16-.49.64c-.33.27-.47.49-.4.65a.42.42,0,0,0-.13.59l.06.08.07.07a3.31,3.31,0,0,0,1.4,2.85,4.59,4.59,0,0,0,2.78,1.44,12.57,12.57,0,0,0,1.73.21,7.31,7.31,0,0,0,1.8-.26,5.29,5.29,0,0,0,1.61-.76,5.85,5.85,0,0,0,1.87-1.9,8.38,8.38,0,0,0,.45-1,4.39,4.39,0,0,0,.39-1.67A4,4,0,0,0,1097.9,461Z"/><path class="cls-29" d="M893.17,81.12c-3.54-2.15-8.09-2-12.12-1.87a30.07,30.07,0,0,0-6.14.51,14.62,14.62,0,0,0-3,1.18,15.64,15.64,0,0,0-2,1.31l-.27.22a1.6,1.6,0,0,0-.26.26c-.92,1.24-1,1.34-.29.31a4.77,4.77,0,0,0-1.39,4.25A5,5,0,0,0,870.1,91c-1.62-1.07.5.45.83.62a10,10,0,0,0,1,.41,17.9,17.9,0,0,0,3,1.08,37.13,37.13,0,0,0,6.14.42c1.51.07,3,.11,4.51.2a13.73,13.73,0,0,0,6-.62,8.34,8.34,0,0,0,2.89-1.69,6.46,6.46,0,0,0,1.8-3.76A6.59,6.59,0,0,0,893.17,81.12Z"/><path class="cls-29" d="M864.69,75.87a6.21,6.21,0,0,0,1.75-4.22,6.72,6.72,0,0,0-1.75-4.23,5.84,5.84,0,0,0-1.16-1l-.35-.24-.34-.25.14.12a10.09,10.09,0,0,0-4.75-1.43,15.66,15.66,0,0,0-9.79,2,6,6,0,0,0-1,.44,7.93,7.93,0,0,0-1.22.94,3.72,3.72,0,0,0-.79,1.09,4,4,0,0,0-.16,4.67,3.71,3.71,0,0,0,.56.8A4.87,4.87,0,0,0,847.44,76c.21.12.45.2.67.3,2.69,2,7,2.14,8.78,2.26a10.15,10.15,0,0,0,1.56,0,14.82,14.82,0,0,0,2.09-.3,7.56,7.56,0,0,0,2.4-1.09l-.13.1.44-.3.1-.08A6.38,6.38,0,0,0,864.69,75.87Z"/><path class="cls-29" d="M1082.55,60.89c-3.54-2.14-8.09-2-12.12-1.87a29.39,29.39,0,0,0-6.14.52,14,14,0,0,0-3,1.17,15.71,15.71,0,0,0-2,1.32l-.27.21a1.27,1.27,0,0,0-.25.27q-1.39,1.85-.3.3a4.83,4.83,0,0,0-1.39,4.25,5,5,0,0,0,2.41,3.69c-1.62-1.06.5.45.83.62a8.05,8.05,0,0,0,1,.41,16,16,0,0,0,3,1.08,37.13,37.13,0,0,0,6.14.42c1.51.07,3,.11,4.51.2a13.58,13.58,0,0,0,6-.62,8.31,8.31,0,0,0,2.89-1.68,6.46,6.46,0,0,0,1.8-3.76A6.58,6.58,0,0,0,1082.55,60.89Z"/><path class="cls-29" d="M1096.71,55.65a6.25,6.25,0,0,0,1.75-4.23,6.72,6.72,0,0,0-1.75-4.23,5.9,5.9,0,0,0-1.17-1l-.34-.24-.35-.24.15.11a10.09,10.09,0,0,0-4.75-1.43,23.84,23.84,0,0,0-6.88.69,14.8,14.8,0,0,0-2.92,1.33,5.38,5.38,0,0,0-2.18,1.38,3.81,3.81,0,0,0-.79,1.08,4,4,0,0,0-.16,4.67,3.71,3.71,0,0,0,.56.8,4.87,4.87,0,0,0,1.61,1.45,4.43,4.43,0,0,0,.67.3c2.69,2,7,2.14,8.77,2.26a10.29,10.29,0,0,0,1.57,0,14.82,14.82,0,0,0,2.09-.3,7.31,7.31,0,0,0,2.41-1l-.14.11.45-.31.1-.07A6.73,6.73,0,0,0,1096.71,55.65Z"/><path class="cls-29" d="M988.7,112.35a17.2,17.2,0,0,0-6.16-1.7,44.21,44.21,0,0,0-6.51,0c-1.11,0-2.2.16-3.3.22a20.28,20.28,0,0,0-3,.44,3.12,3.12,0,0,0-.67.11l-1.66.71a11.48,11.48,0,0,0-1.18.9,4.75,4.75,0,0,0-1.57,2,5.27,5.27,0,0,0,.15,4.44c-.07-.13-.13-.27-.22-.45a4.56,4.56,0,0,0,1.1,2.08,7.06,7.06,0,0,0,2,1.85,10.62,10.62,0,0,0,2.76,1.37,18.9,18.9,0,0,0,4.84.78c2,.08,3.94,0,5.91.15a12.5,12.5,0,0,1,1.89.49,7.62,7.62,0,0,0,9-3C994.25,119.26,992.31,114.08,988.7,112.35Z"/><path class="cls-29" d="M1112.23,207.77a6.62,6.62,0,0,0-3.82-.85c-1.05.12-2.05.35-3.09.5l1.51-.21c-.81.11-1.62.25-2.42.38a11.58,11.58,0,0,0-1.94.25,14.53,14.53,0,0,0-2,.83,4.7,4.7,0,0,0-1.41.92,4.63,4.63,0,0,0,0,6.56l0,0a11.16,11.16,0,0,0,2.64,1.76,4.69,4.69,0,0,0,1.32.4c.69.1,1.38.2,2.08.27a7.86,7.86,0,0,0,1.68,0,19.12,19.12,0,0,0,3-.48,6.53,6.53,0,0,0,3.41-2.12,6.61,6.61,0,0,0,1.38-2.36,6.33,6.33,0,0,0,.2-1.44A5.2,5.2,0,0,0,1112.23,207.77Z"/><path class="cls-29" d="M846.54,816a6.11,6.11,0,0,0-3.07-4.7c-2-1-3.92-2-6.29-1.78-1.88.19-3.82.53-5.68.88a21.68,21.68,0,0,0-3.63,1,14.82,14.82,0,0,0-2.11.86,13.12,13.12,0,0,0-1.13.83l-.31.09a5,5,0,0,0-3.5,4.07,4.82,4.82,0,0,0,2.34,4.88l.93.42c.24.12,1,.67.25,0-.42-.33-.47-.37-.13-.11l1.29,1a9.49,9.49,0,0,0,2.2,1,20.64,20.64,0,0,0,5.45.95,24.27,24.27,0,0,0,4-.21,21.47,21.47,0,0,0,2.65-.41,8.62,8.62,0,0,0,3.62-2,15.5,15.5,0,0,0,1.32-1.37A6.46,6.46,0,0,0,846.54,816Z"/><path class="cls-29" d="M877.81,984c-.6-5-3.57-7.94-7.63-9.73C867,972.91,863.4,973,860,972.94c-2.55,0-5.12.14-7.67.23a61,61,0,0,0-9.63,1.14,25.06,25.06,0,0,0-8.31,3.17c-3.77,2.42-5.22,9.32-1.49,12.69a17.45,17.45,0,0,0,5.81,3.72l-.88-.35a7.91,7.91,0,0,0,1.71.88c.8.37,1.63.83,2.47,1.12a48.41,48.41,0,0,0,10.32,2.06,76.31,76.31,0,0,0,8,.63c1.34,0,2.68,0,4-.11a22.17,22.17,0,0,0,8.3-2.44,10.52,10.52,0,0,0,3.82-4.2A12.53,12.53,0,0,0,877.81,984Z"/><path class="cls-29" d="M897.79,1006.42a.72.72,0,0,1-.35-.06,3.47,3.47,0,0,0-1.64-.6h-.16a5.13,5.13,0,0,0-1.87-1l-.61-.09H893l-1-.18a29.4,29.4,0,0,0-3.24-.47,13.91,13.91,0,0,0-3.64.26L887,1004a21.76,21.76,0,0,0-4,.7c-.34.12-.69.21-1,.33a6.45,6.45,0,0,0-1.92,1.06c-.52.23-1,.46-1.54.73a5.84,5.84,0,0,0-2.24,2.2,4.17,4.17,0,0,0-.55,3.82c.45,2.2,2.48,3.67,4.28,4.61a6.54,6.54,0,0,0,2.31,1.2,13.23,13.23,0,0,0,3.18.6,14.86,14.86,0,0,0,1.63-.1,16.16,16.16,0,0,0,2.39-.33,12.92,12.92,0,0,0,2.13-1,12.28,12.28,0,0,0,2.81-1.87,8.75,8.75,0,0,0,2.64-2.81,6.84,6.84,0,0,0,.36-1.08h0a10.87,10.87,0,0,0,.9-1.24c.1-.27.2-.53.31-.8a4.26,4.26,0,0,0,.06-.5l.33-.53a1.71,1.71,0,0,0-1.29-2.57Z"/><path class="cls-29" d="M984,965.62a7,7,0,0,0-1.91-4.38l1,1.26c-2.55-4.62-8.63-3.6-13.07-3.79-1.52-.06-3-.1-4.54-.06a23.59,23.59,0,0,0-3.55.44c-.3.06-.6.11-.9.19a6.37,6.37,0,0,0-1.51.61c-1.33,1-1.5,1.16-.49.39a5.12,5.12,0,0,0-1.63,7,5.49,5.49,0,0,0,.63.81q-1.18-1.49.38.51l1.12.87a6.13,6.13,0,0,0,1,.48,18.15,18.15,0,0,0,3.27,1.23,43.37,43.37,0,0,0,6,.87c4.47.36,10.69,1.37,13.27-3.33l-.39.5A5.69,5.69,0,0,0,984,965.62Z"/><path class="cls-29" d="M989.79,948.48v-.15a1.58,1.58,0,0,0-1.35-1.55,3.46,3.46,0,0,0-1.38-.52h.15l-.36-.06a4.09,4.09,0,0,0-2.14,0h-.24a6.26,6.26,0,0,0-1.66.66,6.89,6.89,0,0,0-2.15,1.68.57.57,0,0,1-.11.11l-.17.15-.43.55c-.29.24-.4.43-.35.56a.39.39,0,0,0-.1.54l0,0,.07.06a2.85,2.85,0,0,0,1.21,2.48,4,4,0,0,0,2.42,1.25,11,11,0,0,0,1.5.18,6.39,6.39,0,0,0,1.57-.22,4.52,4.52,0,0,0,1.4-.67,4.89,4.89,0,0,0,1.62-1.64c.14-.28.27-.56.39-.85a3.63,3.63,0,0,0,.34-1.45A3.33,3.33,0,0,0,989.79,948.48Z"/><path class="cls-29" d="M1088,1015.92a8.08,8.08,0,0,0-2.19-5l1.11,1.45c-2.93-5.31-9.93-4.15-15-4.36-1.75-.07-3.47-.12-5.22-.07a25.69,25.69,0,0,0-4.09.51,9.26,9.26,0,0,0-1,.21,7.73,7.73,0,0,0-1.74.7q-2.31,1.78-.57.46c-3.2,2.36-3.66,5.92-1.16,9-.9-1.15-.76-1,.44.58l1.29,1a7.86,7.86,0,0,0,1.13.55,21.15,21.15,0,0,0,3.77,1.42,50.21,50.21,0,0,0,7,1c5.13.42,12.29,1.59,15.26-3.83l-.45.59A6.56,6.56,0,0,0,1088,1015.92Z"/><path class="cls-29" d="M1097.9,989.08v-.18a1.85,1.85,0,0,0-1.56-1.78,3.93,3.93,0,0,0-1.59-.59h.18l-.42-.07a4.67,4.67,0,0,0-2.46,0l-.27.06a7.4,7.4,0,0,0-1.92.76,7.69,7.69,0,0,0-2.46,1.93l-.14.13-.19.16c-.16.22-.33.43-.49.64-.33.27-.47.49-.4.65a.45.45,0,0,0-.13.61l.06.07.07.06a3.31,3.31,0,0,0,1.4,2.85,4.59,4.59,0,0,0,2.78,1.44,12.57,12.57,0,0,0,1.73.21,7.31,7.31,0,0,0,1.8-.26,5.29,5.29,0,0,0,1.61-.76,5.49,5.49,0,0,0,1.87-1.9,8.38,8.38,0,0,0,.45-1,4.39,4.39,0,0,0,.39-1.67A4,4,0,0,0,1097.9,989.08Z"/><path class="cls-29" d="M893.17,609.24c-3.54-2.15-8.09-2-12.12-1.87a29.39,29.39,0,0,0-6.14.52,14,14,0,0,0-3,1.17,15.71,15.71,0,0,0-2,1.32l-.27.21a1.66,1.66,0,0,0-.26.27c-.92,1.23-1,1.33-.29.3a4.83,4.83,0,0,0-1.39,4.25,5.07,5.07,0,0,0,2.41,3.69c-1.62-1.06.5.45.83.62a10,10,0,0,0,1,.41,17.59,17.59,0,0,0,3,1.08,37.13,37.13,0,0,0,6.14.42c1.51.07,3,.11,4.51.2a13.73,13.73,0,0,0,6-.62,8.18,8.18,0,0,0,2.89-1.69,6.46,6.46,0,0,0,1.8-3.75A6.58,6.58,0,0,0,893.17,609.24Z"/><path class="cls-29" d="M864.69,604a6.25,6.25,0,0,0,1.75-4.23,6.72,6.72,0,0,0-1.75-4.23,5.84,5.84,0,0,0-1.16-1l-.35-.24-.34-.24.14.11a10.09,10.09,0,0,0-4.75-1.43,24.17,24.17,0,0,0-6.88.69,15,15,0,0,0-2.91,1.33,5.91,5.91,0,0,0-1,.43,7,7,0,0,0-1.22.95,3.81,3.81,0,0,0-.79,1.08,4,4,0,0,0-.16,4.67,3.71,3.71,0,0,0,.56.8,4.87,4.87,0,0,0,1.61,1.45c.22.11.44.21.67.3,2.69,2,7,2.14,8.78,2.26a10.16,10.16,0,0,0,1.56,0,14.82,14.82,0,0,0,2.09-.3,7.15,7.15,0,0,0,2.4-1.09l-.13.11c.14-.11.29-.21.44-.31l.1-.07A6.78,6.78,0,0,0,864.69,604Z"/><path class="cls-29" d="M1082.55,589c-3.54-2.14-8.09-2-12.12-1.87a30.08,30.08,0,0,0-6.14.52,14.59,14.59,0,0,0-3,1.17,15.71,15.71,0,0,0-2,1.32l-.27.21a1.27,1.27,0,0,0-.25.27c-.93,1.23-1,1.34-.3.31a4.75,4.75,0,0,0-1.39,4.24,5.06,5.06,0,0,0,2.41,3.7c-1.62-1.07.5.45.83.61a10,10,0,0,0,1,.41,16,16,0,0,0,3,1.08,37.13,37.13,0,0,0,6.14.42c1.51.08,3,.11,4.51.2a13.29,13.29,0,0,0,6-.62,8,8,0,0,0,2.89-1.68,6.46,6.46,0,0,0,1.8-3.76A6.61,6.61,0,0,0,1082.55,589Z"/><path class="cls-29" d="M1096.71,583.77a6.25,6.25,0,0,0,1.75-4.23,6.72,6.72,0,0,0-1.75-4.23,5.34,5.34,0,0,0-1.17-1l-.34-.25-.35-.24.15.11a10.09,10.09,0,0,0-4.75-1.43,16.39,16.39,0,0,0-3.21.08,15.73,15.73,0,0,0-3.67.61,14.8,14.8,0,0,0-2.92,1.33,5.38,5.38,0,0,0-2.18,1.38,3.72,3.72,0,0,0-.79,1.09,4,4,0,0,0-.16,4.66,3.71,3.71,0,0,0,.56.8,4.9,4.9,0,0,0,1.61,1.46c.21.11.44.2.67.3,2.69,2,7,2.13,8.77,2.25a10.29,10.29,0,0,0,1.57,0,12.39,12.39,0,0,0,2.09-.3,7.06,7.06,0,0,0,2.4-1.09l-.14.11.45-.31.1-.07A6.54,6.54,0,0,0,1096.71,583.77Z"/><path class="cls-29" d="M988.7,640.47a17.2,17.2,0,0,0-6.16-1.7,44.21,44.21,0,0,0-6.51,0c-1.11.05-2.2.16-3.3.22a20.28,20.28,0,0,0-3,.44,3.12,3.12,0,0,0-.67.11l-1.66.71a14.69,14.69,0,0,0-1.18.9,4.75,4.75,0,0,0-1.57,2,5.27,5.27,0,0,0,.15,4.44c-.07-.13-.13-.26-.22-.45a4.64,4.64,0,0,0,1.1,2.09,7,7,0,0,0,2,1.84,11,11,0,0,0,2.76,1.38,19.88,19.88,0,0,0,4.84.78c2,.07,3.94,0,5.91.14a12.54,12.54,0,0,1,1.89.5,7.62,7.62,0,0,0,9-3C994.25,647.38,992.31,642.21,988.7,640.47Z"/><path class="cls-29" d="M1112.23,735.89a6.62,6.62,0,0,0-3.82-.85c-1.05.12-2.05.35-3.09.5l1.51-.2c-.81.1-1.62.24-2.42.37a9.83,9.83,0,0,0-1.94.26,12.92,12.92,0,0,0-2,.82,4.42,4.42,0,0,0-2.61,3,4.62,4.62,0,0,0,1.2,4.52,11.16,11.16,0,0,0,2.64,1.76,4.69,4.69,0,0,0,1.32.4c.69.1,1.38.21,2.08.27a6.75,6.75,0,0,0,1.68,0,19.12,19.12,0,0,0,3-.48,6.57,6.57,0,0,0,3.41-2.11,6.66,6.66,0,0,0,1.38-2.37,6.33,6.33,0,0,0,.2-1.44A5.2,5.2,0,0,0,1112.23,735.89Z"/></svg>